<?xml version="1.0" encoding="utf-8"?>
<!-- Generator: Adobe Illustrator 24.2.1, SVG Export Plug-In . SVG Version: 6.00 Build 0)  -->
<svg version="1.1" id="레이어_1" xmlns="http://www.w3.org/2000/svg" xmlns:xlink="http://www.w3.org/1999/xlink" x="0px"
	 y="0px" viewBox="0 0 12 14" style="enable-background:new 0 0 12 14;" xml:space="preserve">
<style type="text/css">
	.st0{fill:none;stroke:#898989;}
</style>
<path class="st0" d="M3.5,6.9h5v0L3.5,6.9L3.5,6.9z M3.5,5.4h5v0L3.5,5.4L3.5,5.4z M10.6,11.8l0.9,0.9v-1.2v-9c0-0.4-0.2-0.8-0.5-1
	c-0.3-0.3-0.6-0.5-1-0.5H2c-0.4,0-0.8,0.2-1.1,0.5C0.6,1.7,0.5,2,0.5,2.4v6c0,0.4,0.1,0.8,0.4,1l0,0l0,0C1.2,9.8,1.6,10,2,10h6.8
	L10.6,11.8z M3.5,3.9h5v0L3.5,3.9L3.5,3.9z"/>
</svg>
