<?xml version="1.0" encoding="utf-8"?>
<!-- Generator: Adobe Illustrator 24.2.1, SVG Export Plug-In . SVG Version: 6.00 Build 0)  -->
<svg version="1.1" id="레이어_1" xmlns="http://www.w3.org/2000/svg" xmlns:xlink="http://www.w3.org/1999/xlink" x="0px"
	 y="0px" viewBox="0 0 11 11" style="enable-background:new 0 0 11 11;" xml:space="preserve">
<style type="text/css">
	.st0{fill:#898989;}
</style>
<path class="st0" d="M2.3,6.1c0.5,0.5,1.1,0.8,1.9,0.8s1.3-0.3,1.9-0.8c0.5-0.5,0.8-1.1,0.8-1.9S6.6,2.9,6.1,2.3
	C5.6,1.8,4.9,1.6,4.2,1.6S2.9,1.8,2.3,2.3C1.8,2.9,1.6,3.5,1.6,4.2S1.8,5.6,2.3,6.1z M7.7,6.8l2.9,2.9l-0.9,0.9L6.8,7.7V7.2L6.7,7.1
	C6,7.7,5.1,8,4.2,8c-1.1,0-2-0.4-2.7-1.1C0.8,6.2,0.4,5.3,0.4,4.2s0.4-2,1.1-2.7c0.7-0.7,1.6-1.1,2.7-1.1s2,0.4,2.7,1.1
	C7.6,2.3,8,3.1,8,4.2C8,5.1,7.7,6,7.1,6.7l0.2,0.2H7.7z"/>
</svg>
