<svg id="레이어_1" data-name="레이어 1" xmlns="http://www.w3.org/2000/svg" viewBox="0 0 720 171"><defs><style>.cls-1{fill:#fff;}.cls-2{fill:#e6001f;}</style></defs><rect class="cls-1" width="720" height="171"/><path class="cls-2" d="M327.81,20h0c0,1,0,45.86,0,45.86q0,12.67,6.91,20.2t18.44,7.57a44.81,44.81,0,0,0,6.68-.64v0c1.27-.29,2.66-.64,4.2-1.06V69.58a8.22,8.22,0,0,1-11.81.1c-1.68-1.39-2.53-4.05-2.53-8,0,0,0-39.45,0-41.63h0V16.72c-.26-3.45-2.57-6.16-5.42-6.19h-23a8.19,8.19,0,0,1,4,2.21C326.87,14.05,327.7,16.48,327.81,20Z"/><path class="cls-2" d="M295.69,93.28V71a9,9,0,1,1,4.76-8V93.62h22.3V62.8c-.07-16.9-14.11-30.58-31.41-30.58h0c-17.34,0-31.4,13.75-31.4,30.7S274,93.63,291.34,93.63A33.41,33.41,0,0,0,295.69,93.28Z"/><path class="cls-2" d="M430.25,32.66c-16.47,0-29.82,13.67-29.82,30.52a29.87,29.87,0,0,0,.33,4.22h21.65a8.89,8.89,0,0,1-1.05-4.13A8.77,8.77,0,1,1,430.13,72h-.05l-33.37,0a8.23,8.23,0,0,1-5.24-2.41c-1.68-1.39-2.53-4.06-2.53-8V49.38h9.39a33.08,33.08,0,0,1,15.29-16.75H389c0-2,0-11.43,0-12.6h0q.15-5.34,2.51-7.31a8.29,8.29,0,0,1,4-2.22h-23c-2.85,0-5.16,2.75-5.42,6.2v2.85h0l0,46.28q0,12.69,6.91,20.2t18.46,7.58h7.21A18,18,0,0,1,396,97.67H363.68c-.29,0-3.21.44-3.42.52h0l-.08,0a24.58,24.58,0,0,0-19.7,24,.07.07,0,0,1,0,0h0v13.77h0v0h0a2.42,2.42,0,0,1-4.83,0h0V121.73a24.57,24.57,0,0,0-49.13.12v19.5h22.14V122h0v0h0a2.42,2.42,0,0,1,4.83,0h0v14.83a24.58,24.58,0,0,0,49.13-1V121.15a1.35,1.35,0,0,1,1.3-1.35h9.76a32.51,32.51,0,0,0-1.44,9.29h0c0,17.35,13.75,31.41,30.71,31.41s30.7-14.06,30.7-31.41a31.63,31.63,0,0,0-.35-4.35H411a9,9,0,1,1-7.95-4.77h30.57V97.65H419.79a25.55,25.55,0,0,0,2.33-3.91h8.07v0h.11c16.45,0,29.77-13.68,29.77-30.51h0C460.07,46.32,446.72,32.66,430.25,32.66Z"/></svg>