<?xml version="1.0" encoding="utf-8"?>
<!-- Generator: Adobe Illustrator 22.0.1, SVG Export Plug-In . SVG Version: 6.00 Build 0)  -->
<svg version="1.1" id="레이어_1" xmlns="http://www.w3.org/2000/svg" xmlns:xlink="http://www.w3.org/1999/xlink" x="0px"
	 y="0px" viewBox="0 0 106 106" style="enable-background:new 0 0 106 106;" xml:space="preserve">
<style type="text/css">
	.st0{fill:#888888;}
</style>
<g>
	<g>
		<path class="st0" d="M52.9,8.6c24.5,0,44.5,20,44.5,44.5s-20,44.5-44.5,44.5S8.4,77.6,8.4,53.1S28.4,8.6,52.9,8.6 M52.9,0.6
			c-29,0-52.5,23.5-52.5,52.5c0,29,23.5,52.5,52.5,52.5s52.5-23.5,52.5-52.5C105.4,24.1,81.9,0.6,52.9,0.6L52.9,0.6z"/>
	</g>
	<path class="st0" d="M25.6,78.7c4.5-10.6,15.2-17.3,27.2-17.3c12.2,0,23,6.9,27.4,17.4c0.7,1.8-0.1,3.9-1.9,4.6
		c-0.4,0.2-0.9,0.3-1.3,0.2c-1.4,0-2.7-0.8-3.3-2.1c-3.3-8-11.5-13.1-20.8-13.1c-8.9-0.2-17,5-20.7,13.1c-0.9,1.8-3,2.6-4.8,1.7
		C25.7,82.5,25,80.5,25.6,78.7z"/>
</g>
<path class="st0" d="M28.2,40.7c0-4.4,3.6-8,8-8s8,3.6,8,8s-3.6,8-8,8l0,0C31.8,48.7,28.2,45.1,28.2,40.7z M61.7,40.7
	c0-4.4,3.6-8,8-8c4.4,0,8,3.6,8,8s-3.6,8-8,8C65.3,48.7,61.7,45.1,61.7,40.7L61.7,40.7z"/>
</svg>
