<svg id="레이어_1" data-name="레이어 1" xmlns="http://www.w3.org/2000/svg" viewBox="0 0 38.44 38.3"><defs><style>.cls-1{fill:#fd0031;}.cls-2,.cls-3{fill:none;stroke:#333;stroke-width:0.7px;}.cls-2{stroke-linecap:round;stroke-linejoin:round;}</style></defs><path class="cls-1" d="M5.19,23.22c8.38-4.61,7.27-13.83,5.59-18.44-.14-.14-.28-.42-.42-.56A33.33,33.33,0,0,0,2.82.87,1.46,1.46,0,0,0,1,2.27c0,10.34.14,27.24.56,30.59,0,.42.42.56.84.42H3c1.11-.14,2.51-1.39,2.23-2.51l-1-5.87A2.06,2.06,0,0,1,5.19,23.22Z" transform="translate(-0.91 -0.85)"/><path class="cls-1" d="M35.09,22.94c-7.27-4.47-6.29-13.55-4.89-18a1.93,1.93,0,0,1,.42-.56A27.48,27.48,0,0,1,37,1.29a1.43,1.43,0,0,1,1.82,1.26c0,10.06-.14,26.26-.56,29.62,0,.41,0,.55-.42.55-1.12-.14-2.93-1.67-2.79-2.79l.84-5.59A1.54,1.54,0,0,0,35.09,22.94Z" transform="translate(-0.91 -0.85)"/><path class="cls-1" d="M1.28,37.61V35a.91.91,0,0,1,.84-.7h8.94a1.32,1.32,0,0,1,1.4,1.4v2a1.32,1.32,0,0,1-1.4,1.4H2.68A1.32,1.32,0,0,1,1.28,37.61Z" transform="translate(-0.91 -0.85)"/><path class="cls-1" d="M25,35.66v2.65a.9.9,0,0,1-.84.84H15.25a1.32,1.32,0,0,1-1.4-1.4V35.66a1.32,1.32,0,0,1,1.4-1.4h8.38A1.32,1.32,0,0,1,25,35.66Z" transform="translate(-0.91 -0.85)"/><path class="cls-1" d="M37,37.47V34.82a.89.89,0,0,0-.83-.84H27.12a1.32,1.32,0,0,0-1.39,1.4v1.95a1.32,1.32,0,0,0,1.39,1.4h8.39A1.21,1.21,0,0,0,37,37.47Z" transform="translate(-0.91 -0.85)"/><path class="cls-2" d="M1.28,2.13V38.45H39V2.13" transform="translate(-0.91 -0.85)"/><path class="cls-3" d="M1.28,34.26v2.79a1.32,1.32,0,0,0,1.4,1.4h9.78a1.32,1.32,0,0,0,1.39-1.4V34.26a1.32,1.32,0,0,0-1.39-1.4H2.68A1.32,1.32,0,0,0,1.28,34.26Z" transform="translate(-0.91 -0.85)"/><path class="cls-3" d="M13.85,34.26v2.79a1.32,1.32,0,0,0,1.4,1.4H25a1.32,1.32,0,0,0,1.4-1.4V34.26a1.32,1.32,0,0,0-1.4-1.4H15.25A1.32,1.32,0,0,0,13.85,34.26Z" transform="translate(-0.91 -0.85)"/><path class="cls-3" d="M26.43,34.26v2.79a1.32,1.32,0,0,0,1.39,1.4H37.6a1.32,1.32,0,0,0,1.4-1.4V34.26a1.32,1.32,0,0,0-1.4-1.4H27.82A1.32,1.32,0,0,0,26.43,34.26Z" transform="translate(-0.91 -0.85)"/><path class="cls-3" d="M1.28,2.13C1,3.53,4.21,6.32,19,6.32c18.58,0,19.56-2.79,20-4.19" transform="translate(-0.91 -0.85)"/><path class="cls-2" d="M11.06,6.32a14.6,14.6,0,0,1-7,16.76m0,0H1.28m2.79,0,2.1,9.78M7.57,8.42c.69,2.37,1,6.84-3.5,11.87m0-12.57c1,1.67,1.54,5.31-.7,9.78" transform="translate(-0.91 -0.85)"/><path class="cls-2" d="M28.52,6.32a14.49,14.49,0,0,0,6.85,16.76m0,0h2.79m-2.79,0-2,9.78M31.87,8.42c-.69,2.37-1,6.84,3.5,11.87m0-12.57c-1,1.67-1.54,5.31.7,9.78" transform="translate(-0.91 -0.85)"/><path class="cls-2" d="M5.47,28.67H34.25M8.54,2.13c3.5,1.67,13.28,4.19,24,0" transform="translate(-0.91 -0.85)"/></svg>