<svg id="레이어_1" data-name="레이어 1" xmlns="http://www.w3.org/2000/svg" viewBox="0 0 39 24.45"><defs><style>.cls-1{fill:#fd0031;}.cls-2,.cls-4{fill:none;stroke:#333;}.cls-3{fill:#fff;}.cls-4{stroke-linecap:round;stroke-linejoin:round;}</style></defs><path class="cls-1" d="M9.74,17.1c1.36-1.43,2.87-3,4.06-4.29a6.66,6.66,0,0,1,4.85-2.15h12a.53.53,0,0,1,.48.56v5.16A1.59,1.59,0,0,0,32.72,18a1.6,1.6,0,0,1,1.59,1.59v7.79a4.07,4.07,0,0,1-4.05,4.06H26.68a.53.53,0,0,1-.56-.48,1.58,1.58,0,0,0-1.51-1.59H6.8a1.1,1.1,0,0,1-.87-.48,1,1,0,0,1,.87-1.59h.08a1.67,1.67,0,0,0,.56-.15h0a1.25,1.25,0,0,0,.64-1V21.55A6.69,6.69,0,0,1,9.74,17.1Z" transform="translate(-0.5 -7.77)"/><path class="cls-2" d="M15.63,26.24H1.79A.75.75,0,0,0,1,27v3.41a.75.75,0,0,0,.79.8H32.16a.76.76,0,0,0,.8-.8V27a.76.76,0,0,0-.8-.8h-5.8a.76.76,0,0,0-.8.8v.87a.75.75,0,0,1-.79.8H17.3a.76.76,0,0,1-.8-.8V27A.87.87,0,0,0,15.63,26.24Z" transform="translate(-0.5 -7.77)"/><path class="cls-3" d="M30,27.27V15.59a.75.75,0,0,1,.79-.8h7.4a.75.75,0,0,1,.79.8V30.93a.75.75,0,0,1-.79.8h-7.4a.75.75,0,0,1-.79-.8Z" transform="translate(-0.5 -7.77)"/><path class="cls-4" d="M4.5,25.76V9.07a.75.75,0,0,1,.79-.8H33.12a.75.75,0,0,1,.79.8v5.72m.08,0h4.22a.75.75,0,0,1,.79.8V30.93a.75.75,0,0,1-.79.8h-7.4a.75.75,0,0,1-.79-.8V15.59a.75.75,0,0,1,.79-.8h1.67m1.51,0H32.48M6,25.76V10.58a.75.75,0,0,1,.79-.8H31.69a.75.75,0,0,1,.79.8v4.21M33,30.22h3m-17-18-9,9m-.47,3L22,11.77M32.24,28.71h4.45a.76.76,0,0,0,.8-.8V17a.76.76,0,0,0-.8-.8H32.32a.75.75,0,0,0-.79.8V27.91A.69.69,0,0,0,32.24,28.71Z" transform="translate(-0.5 -7.77)"/></svg>