<svg id="레이어_1" data-name="레이어 1" xmlns="http://www.w3.org/2000/svg" viewBox="0 0 39 39"><defs><style>.cls-1{fill:#fd0031;}.cls-2,.cls-3{fill:none;stroke:#333;}.cls-3{stroke-linecap:round;stroke-linejoin:round;}</style></defs><ellipse class="cls-1" cx="20.59" cy="19.77" rx="17.91" ry="18.73"/><circle class="cls-2" cx="19.5" cy="19.5" r="19"/><path class="cls-3" d="M11.18,3.71,9.82,9.14m0,0L3.71,10.5M9.82,9.14l5.43,5.43M1,19.32l4.75,4.07m0,0L13.21,22M5.75,23.39,4.39,30.86M13.21,22l2-7.47m-2,7.47,5.43,5.42M15.25,14.57l7.46-2m0,0,1.36-7.47m-1.36,7.47L28.14,18M24.07,5.07,20,1m4.07,4.07L29.5,3.71M28.14,18l-2,7.47m2-7.47,6.79-2m-8.82,9.5-7.47,2m7.47-2,4.75,4.75M18.64,27.46l-2,6.79M34.93,15.93l1.36-5.43m-1.36,5.43,3.39,3.39M30.86,30.18l5.43-1.36m-5.43,1.36L29.5,36.29m-12.89-2L9.14,35.61m7.47-1.36L20.68,39" transform="translate(-0.5 -0.5)"/></svg>