<svg id="레이어_1" data-name="레이어 1" xmlns="http://www.w3.org/2000/svg" viewBox="0 0 39 37.97"><defs><style>.cls-1{fill:none;stroke:#333;stroke-linecap:round;stroke-linejoin:round;}</style></defs><path class="cls-1" d="M11.93,13c-2.08.64-5.57,3.39-6.17,9.38M11.93,13a15.78,15.78,0,0,0,3.12,2.25M11.93,13c-1.56-1-2.6-7,1.56-9.88a7.34,7.34,0,0,1,10.15,1,7.59,7.59,0,0,1,.78,7.81m8.85,4.16c1.57,1,2.61,4.16,2.61,4.68,0,.27.83.69,1.71,1a2.2,2.2,0,0,1,1.41,2v1.37a2.11,2.11,0,0,1-1.15,1.87L35.4,28.31a2.27,2.27,0,0,0-.89.82,11.35,11.35,0,0,1-3.9,3.7,2.61,2.61,0,0,0-1.29,1.48L28.51,37a2.07,2.07,0,0,1-2,1.48h-.19a2.07,2.07,0,0,1-1.92-1.28l-.1-.23a2.43,2.43,0,0,0-2.4-1.4,28.34,28.34,0,0,1-3.07,0A2.19,2.19,0,0,0,16.6,37l0,.08a2.08,2.08,0,0,1-2,1.42h-.44a2.08,2.08,0,0,1-2-1.67l-.49-2.44a2.4,2.4,0,0,0-1.22-1.58,9.64,9.64,0,0,1-4.73-8.88,15.34,15.34,0,0,1,.08-1.56M33.27,16.1c-.69,1.39-2.7,3.85-5.2,2.6S25.64,14,26,12.46m7.28,3.64c.35-1.74.73-5.31-.52-5.73s-5,1.22-6.76,2.09m-1.57-.52a2.47,2.47,0,0,1,1.57.52m-1.57-.52C23.73,13,21.93,15.18,20.26,15m9.89,6.29c0,.52.21,1.56,1,1.56s1-1,1-1.56m-26.47,1c-1.54-.16-4.19-.76-4-2a.91.91,0,0,1,.91-.7c.93,0,1.88.67,1,3.49a1.44,1.44,0,0,1-.26.49A2.28,2.28,0,0,1,1,24.43M13,16.1a8.79,8.79,0,0,1,2.08-.88m8.33.88A11.38,11.38,0,0,0,20.26,15m-5.21.2a11.36,11.36,0,0,1,5.21-.2M15.05,5.68,16.29,10a.62.62,0,0,0,1.21-.11h0a.62.62,0,0,1,1.22,0h0a.61.61,0,0,0,1.21,0l.85-4.25M14,7.76h7.81" transform="translate(-0.5 -1.02)"/></svg>