<svg id="레이어_1" data-name="레이어 1" xmlns="http://www.w3.org/2000/svg" viewBox="0 0 35.5 39.36"><defs><style>.cls-1{fill:#fd0031;}.cls-2{fill:none;stroke:#333;stroke-linecap:round;stroke-linejoin:round;}</style></defs><path class="cls-1" d="M13.11,4.09,24.53.33a1,1,0,0,1,.88,0L34.94,4a1.29,1.29,0,0,1,0,2.39L29.29,8.48a1.1,1.1,0,0,0-.75,1.13v.75a1.19,1.19,0,0,0,1.26,1.26h4a1.18,1.18,0,0,1,1.25,1.25v.38a1.19,1.19,0,0,0,1.26,1.25h.38A1.18,1.18,0,0,1,38,15.76V36.33a1.18,1.18,0,0,1-1.25,1.25H25.53a1.54,1.54,0,0,0-1,.51l-.76,1a1.12,1.12,0,0,1-1,.5H14.62a1.13,1.13,0,0,1-.88-.37l-1.38-1.38a2.27,2.27,0,0,0-.88-.26h-4a1.18,1.18,0,0,1-1.26-1.25V17.26A1.18,1.18,0,0,1,7.47,16H11a1.21,1.21,0,0,0,1.25-1L14,7.6a1.27,1.27,0,0,0-.75-1.38A1.08,1.08,0,0,1,13.11,4.09Z" transform="translate(-2.45 -0.23)"/><path class="cls-2" d="M13,13.75H5.46v3.76M13,13.75l7.52,3.76M13,13.75c-.63-.25-.88-1.51.62-5m14.43,5h6.9v3.76M28,13.75l-7.53,3.76M28,13.75c.38,0,.88-1-.63-5m-6.9,8.78V36.33m0,0H18.63c0-2-2.51-2.51-3.76-2.51H5.46V17.51M20.51,36.33h1.88c0-.88.26-2.51,3.77-2.51h8.78V17.51M13.61,8.73l6.9,1.88m-6.9-1.88L6.09,6.22l13.8-5,14.42,5m-6.9,2.51-6.9,1.88m6.9-1.88,5.65-2M20.51,10.61v3.77m13.8-8.16H21.77m12.54,0-1.25.5m0,0V9.36M5.46,17.51H3V37H14.87l1.88,1.88h6.9L25.53,37H37.45V17.51H34.94M8.6,21.28H13m2.5,0h1.26M8.6,24.41h1.88m1.88,0h5M8.6,27.55H13m1.88,0h2.51M23,21.28h5m1.88,0H31.8M23,24.41h2.51m1.88,0h5M23,27.55h5m1.88,0h2.51m.63-16.31v.63" transform="translate(-2.45 -0.23)"/></svg>