<svg id="레이어_1" data-name="레이어 1" xmlns="http://www.w3.org/2000/svg" viewBox="0 0 39 37.59"><defs><style>.cls-1,.cls-2{fill:none;stroke:#333;}.cls-1{stroke-linecap:round;stroke-linejoin:round;}</style></defs><path class="cls-1" d="M1,1.7V38.3H39V1.7" transform="translate(-0.5 -1.2)"/><path class="cls-2" d="M1,34.07v2.82A1.41,1.41,0,0,0,2.41,38.3h9.85a1.41,1.41,0,0,0,1.41-1.41V34.07a1.41,1.41,0,0,0-1.41-1.4H2.41A1.41,1.41,0,0,0,1,34.07Z" transform="translate(-0.5 -1.2)"/><path class="cls-2" d="M13.67,34.07v2.82a1.41,1.41,0,0,0,1.4,1.41h9.86a1.41,1.41,0,0,0,1.4-1.41V34.07a1.4,1.4,0,0,0-1.4-1.4H15.07A1.4,1.4,0,0,0,13.67,34.07Z" transform="translate(-0.5 -1.2)"/><path class="cls-2" d="M26.33,34.07v2.82a1.41,1.41,0,0,0,1.41,1.41h9.85A1.41,1.41,0,0,0,39,36.89V34.07a1.41,1.41,0,0,0-1.41-1.4H27.74A1.41,1.41,0,0,0,26.33,34.07Z" transform="translate(-0.5 -1.2)"/><path class="cls-2" d="M1,1.7C.77,3.11,4,5.93,18.93,5.93,37.57,5.93,38.52,3.11,39,1.7" transform="translate(-0.5 -1.2)"/><path class="cls-1" d="M10.85,5.93c1.17,3.28,1.42,11.82-7,16.88m0,0H1m2.82,0,2.1,9.86M7.35,8c.7,2.34,1,6.89-3.52,12m0-12.67c.93,1.65,1.54,5.35-.71,9.86" transform="translate(-0.5 -1.2)"/><path class="cls-1" d="M28.44,5.93a14.56,14.56,0,0,0,6.94,16.88m0,0H38.2m-2.82,0-2,9.86M31.87,8c-.71,2.34-1,6.89,3.51,12m0-12.67c-.93,1.65-1.54,5.35.71,9.86" transform="translate(-0.5 -1.2)"/><path class="cls-1" d="M5.22,28.44h29M8.25,1.7c3.54,1.74,13.34,4.18,24.25,0" transform="translate(-0.5 -1.2)"/></svg>