<svg id="레이어_1" data-name="레이어 1" xmlns="http://www.w3.org/2000/svg" viewBox="0 0 39.5 38.42"><defs><style>.cls-1{fill:#fd0031;}.cls-2{fill:none;stroke:#333;stroke-linecap:round;stroke-linejoin:round;}</style></defs><path class="cls-1" d="M13.71,7.78c1.47-6.5,7.55-6.39,9.85-3.67,1.16,1.37.53,3.36.63,5.14.21,2.2,1.47,3.15,2.31,3.36a.65.65,0,0,0,.73-.21l2.52-1.16a2.67,2.67,0,0,1,3.77,2.42A3.25,3.25,0,0,0,33.84,15l1.36,2.41A6.26,6.26,0,0,0,37,19.32l.32.21a5.11,5.11,0,0,1,2.2,4.19,4.9,4.9,0,0,1-3,4.61l-.31.21a4.37,4.37,0,0,0-1.47.95L30.9,32.84a4,4,0,0,0-1.25,2l-.32,1a2.8,2.8,0,0,1-2.73,2.09H25.45a1.32,1.32,0,0,1-1.26-.94A1.47,1.47,0,0,0,22.94,36H17.59a1.31,1.31,0,0,0-1.26.94,1.47,1.47,0,0,1-1.26.94h-.31a2.76,2.76,0,0,1-2.41-2.3A14.91,14.91,0,0,0,11.61,33a3,3,0,0,0-1.36-1.68C4.48,27,5.32,21.52,7,18.06A12.45,12.45,0,0,1,9.83,14.7,13,13,0,0,0,13.71,7.78Z" transform="translate(0 -0.79)"/><path class="cls-2" d="M11.51,12.82c-2.1.63-5.56,3.46-6.19,9.43m6.19-9.43a18.24,18.24,0,0,0,3.14,2.3m-3.14-2.3c-1.57-1.05-2.62-7,1.57-10A7.48,7.48,0,0,1,23.35,3.91a7.68,7.68,0,0,1,.84,7.86M33,16c1.57,1.05,2.62,4.2,2.62,4.72,0,.31.84.73,1.68,1.05a2.24,2.24,0,0,1,1.47,2v1.36A2,2,0,0,1,37.61,27L35.1,28.23a3.63,3.63,0,0,0-1,.84,12.78,12.78,0,0,1-3.88,3.77A2.19,2.19,0,0,0,29,34.31L28.18,37a2.15,2.15,0,0,1-2,1.47H26a2.06,2.06,0,0,1-1.89-1.26L24,37a2.33,2.33,0,0,0-2.41-1.36H18.43a2.28,2.28,0,0,0-2.31,1.47v.1a2.14,2.14,0,0,1-2,1.47h-.42A2.14,2.14,0,0,1,11.61,37l-.52-2.41a2.15,2.15,0,0,0-1.26-1.57,9.44,9.44,0,0,1-4.72-8.91,7.5,7.5,0,0,1,.11-1.57M33,16c-.73,1.36-2.73,3.88-5.24,2.62s-2.41-4.72-2.1-6.29M33,16c.31-1.78.73-5.35-.52-5.76s-5,1.25-6.82,2.09m-1.57-.52a2.55,2.55,0,0,1,1.57.52m-1.57-.52c-.74,1.15-2.52,3.25-4.19,3.14m10,6.29c0,.53.21,1.58,1,1.58S32,21.73,32,21.2M5.32,22.25c-1.57-.1-4.19-.73-4-2a1,1,0,0,1,.94-.73c1,0,1.89.63,1.05,3.56-.1.21-.1.32-.21.52-.63.42-1.57,1.16-2.62.74M12.56,16a6.74,6.74,0,0,1,2.09-.84M23,16a9.54,9.54,0,0,0-3.14-1.05m-5.25.21a10.73,10.73,0,0,1,5.25-.21M14.65,5.48l1.26,4.4a.66.66,0,0,0,1.26-.1h0a.64.64,0,0,1,1.26,0h0a.64.64,0,0,0,1.26,0l.73-4.3M13.6,7.57h7.87" transform="translate(0 -0.79)"/></svg>