<svg id="레이어_1" data-name="레이어 1" xmlns="http://www.w3.org/2000/svg" viewBox="0 0 38.5 33.93"><defs><style>.cls-1{fill:#fd0031;}.cls-2{fill:none;stroke:#333;stroke-linecap:round;stroke-linejoin:round;}</style></defs><path class="cls-1" d="M8.45,6.31c5.74-4,10.87-.24,12.82,2.08C27,3.87,31.65,4.6,33.36,5.58,40.2,9,39.71,17.42,37.64,19.74c-11,12.09-15.15,16.37-16.37,17a134.91,134.91,0,0,1-15.75-17C1.61,14.13,5.76,8.51,8.45,6.31Z" transform="translate(-0.5 -2.78)"/><path class="cls-2" d="M5.88,21.57,4.66,19.62C2.59,16.93,0,10.46,5.88,5.58s11.85-.86,14.05,1.83C22,5,27.5,1.18,33.36,5.58s3.67,11.23,1.83,14m-25,6.11,9.77,9.77,11.6-12.22m6.72-1.83h-11L26,25.12,23,13.51,19.32,27,16,19.62l-2.2,4.27H1" transform="translate(-0.5 -2.78)"/></svg>