<svg id="레이어_1" data-name="레이어 1" xmlns="http://www.w3.org/2000/svg" viewBox="0 0 38.5 36.16"><defs><style>.cls-1{fill:#fd0031;}.cls-2,.cls-4{fill:none;}.cls-2,.cls-3,.cls-4{stroke:#333;}.cls-3{fill:#fff;}.cls-4{stroke-linecap:round;stroke-linejoin:round;}</style></defs><path class="cls-1" d="M2.57,34.9l4-11.79A8.86,8.86,0,0,1,15,17H27.82a8.51,8.51,0,0,1,8,5.67l2.89,8.24a4.92,4.92,0,0,1-4.67,6.56,4.75,4.75,0,0,1-4.12-2.23h0A5,5,0,0,0,25.71,33H17.25A5.37,5.37,0,0,0,13,35.23l-.12.12a4.86,4.86,0,0,1-4,2.11H4.24A1.8,1.8,0,0,1,2.57,34.9Z" transform="translate(-0.5 -1.92)"/><path class="cls-2" d="M25.93,15.77H13.36A9.82,9.82,0,0,0,4,22.33L1.35,29.56a5.75,5.75,0,0,0,3,7.23l.67.34a4.8,4.8,0,0,0,6.34-2.23,4.81,4.81,0,0,1,4.33-2.67h6.68a6,6,0,0,1,4.89,2.56,5.9,5.9,0,0,0,10.46-5.23l-2.45-7.12A9.75,9.75,0,0,0,25.93,15.77Z" transform="translate(-0.5 -1.92)"/><circle class="cls-3" cx="14.31" cy="30.31" r="2.56"/><circle class="cls-3" cx="22.31" cy="21.63" r="1.67"/><circle class="cls-3" cx="28.99" cy="21.63" r="1.67"/><path class="cls-4" d="M12.8,20.22c-1.67,0-1.22,1.55-1.22,2.11-.67,0-2.11,0-2.11,1.22s.44,1.23,2.11,1.23c0,.67-.45,2.11,1.22,2.11S14,25.45,14,24.78c.66,0,2.11.22,2.11-1.23S14.69,22.33,14,22.33C14,21.77,14.47,20.22,12.8,20.22Z" transform="translate(-0.5 -1.92)"/><circle class="cls-3" cx="24.32" cy="30.31" r="2.56"/><path class="cls-4" d="M14.47,15.77c0-1.34.56-3.34,3.89-3.34h2m5.22,3.34a3.22,3.22,0,0,0-3.33-3.34h-2m.11,0C20.59,11,20.14,8,16.14,8H8.35A2.7,2.7,0,0,1,5.57,5.2,2.7,2.7,0,0,1,8.35,2.42H20" transform="translate(-0.5 -1.92)"/></svg>