<svg id="레이어_1" data-name="레이어 1" xmlns="http://www.w3.org/2000/svg" viewBox="0 0 39 24.5"><defs><style>.cls-1,.cls-3{fill:none;stroke:#333;}.cls-2{fill:#fff;}.cls-3{stroke-linecap:round;stroke-linejoin:round;}</style></defs><path class="cls-1" d="M15.65,26.25H1.8a.8.8,0,0,0-.8.8v3.4a.8.8,0,0,0,.8.8H32.2a.8.8,0,0,0,.8-.8v-3.4a.8.8,0,0,0-.8-.8H26.35a.8.8,0,0,0-.8.8V28a.79.79,0,0,1-.79.8H17.24a.79.79,0,0,1-.79-.8v-.9A.8.8,0,0,0,15.65,26.25Z" transform="translate(-0.5 -7.75)"/><path class="cls-2" d="M30,27.25V15.55a.8.8,0,0,1,.8-.8h7.4a.8.8,0,0,1,.8.8V31a.8.8,0,0,1-.8.8H30.8A.8.8,0,0,1,30,31Z" transform="translate(-0.5 -7.75)"/><path class="cls-3" d="M4.5,25.75V9.05a.8.8,0,0,1,.8-.8H33.2a.8.8,0,0,1,.8.8v5.7m0,0h4.2a.8.8,0,0,1,.8.8V31a.8.8,0,0,1-.8.8H30.8A.8.8,0,0,1,30,31V15.55a.8.8,0,0,1,.8-.8h1.7m1.5,0H32.5M6,25.75V10.55a.8.8,0,0,1,.8-.8H31.7a.8.8,0,0,1,.8.8v4.2m.5,15.5h3m-17-18-9,9m-.5,3L22,11.75m10.3,17h4.4a.8.8,0,0,0,.8-.8V17.05a.8.8,0,0,0-.8-.8H32.3a.8.8,0,0,0-.8.8V28A.8.8,0,0,0,32.3,28.75Z" transform="translate(-0.5 -7.75)"/></svg>