<svg id="레이어_1" data-name="레이어 1" xmlns="http://www.w3.org/2000/svg" viewBox="0 0 39 30.97"><defs><style>.cls-1,.cls-2{fill:none;stroke:#333;}.cls-1{stroke-linecap:round;stroke-linejoin:round;}</style></defs><path class="cls-1" d="M1.05,35H4.8m3.74,0H4.8m0,0V12c-.22-2.35.85-7,6.42-7s7,4.61,7,7m0,0c-2.14,0-3.75,1.5-3.75,5.35h2.68M18.18,12c3,0,3.53,3.53,3.74,5.35H19.25m-2.14,0c0,.54.21,1.61,1.07,1.61s1.07-1.07,1.07-1.61m-2.14,0h2.14" transform="translate(-0.55 -4.51)"/><path class="cls-2" d="M12.82,27.49H11.75a1,1,0,0,0-1.07,1.07v5.36A1,1,0,0,0,11.75,35h1.61a1,1,0,0,0,1.07-1.07h0m-1.61-6.43h.54a1,1,0,0,1,1.07,1.07v1.61m-1.61-2.68V23.75a1,1,0,0,1,1.08-1.07H23a2,2,0,0,1,1.93,1.6m12,3.21V23.75a1,1,0,0,0-1.07-1.07h-9.1a2,2,0,0,0-1.93,1.6m12.1,3.21h-.54a1,1,0,0,0-1.07,1.07v1.61m1.61-2.68H38a1,1,0,0,1,1.07,1.07v5.36A1,1,0,0,1,38,35H36.37a1,1,0,0,1-1.07-1.07h0m-20.87,0H35.3m-20.87,0V30.17M35.3,33.92V30.17m0,0H24.81m-10.38,0H24.81m0,0V24.28" transform="translate(-0.55 -4.51)"/></svg>