<svg id="레이어_1" data-name="레이어 1" xmlns="http://www.w3.org/2000/svg" viewBox="0 0 36.9 38.73"><defs><style>.cls-1{fill:#fd0031;}.cls-2{fill:none;stroke:#333;stroke-linecap:round;stroke-linejoin:round;}</style></defs><path class="cls-1" d="M19.25,28.44c.1-.38-.28-.67-.66-.86a.72.72,0,0,1-.19-1.24c1.52-1.24,1.81-1.72,1.33-4.1L10.39,32.73c1.24,2,4.67,3.43,6.86,4.38.77.29.67,1-.19,1l-11.34,1a1.21,1.21,0,0,1-1-.47L2.1,33.3a1,1,0,0,1,.28-1.24L15.92,21.29a1.06,1.06,0,0,0,.38-.86l-.38-2.19a1,1,0,0,1,.57-1l6.29-2.86a6,6,0,0,1,1.15-.48,19.89,19.89,0,0,1,2.28-.67c3.34-.76,9.25-.47,11.06,4.68a12.75,12.75,0,0,1-1.71,11.63,10.47,10.47,0,0,0-2,6.29c0,.66-.38,1.33-1,1.33H26.79a.93.93,0,0,1-1-1l.29-2A.92.92,0,0,0,25.07,33l-3.34.29a1.16,1.16,0,0,1-1.24-1.24,2.27,2.27,0,0,0-.19-1.24c-.09-.29-.28-.76-.09-1.05a.36.36,0,0,0-.38-.57h0C19.45,29.29,19.25,28.82,19.25,28.44Z" transform="translate(-1.5 -0.39)"/><path class="cls-2" d="M25.55,36.06l.38-3.14a.92.92,0,0,0-1.05-1.05l-3.53.57c-.47.1-1-.38-1.05-.95a1.36,1.36,0,0,0-.57-.86c-.28-.19-.48-.86-.09-1.05h0a.37.37,0,0,0-.1-.67l-.19-.09c-.38-.1-.38-.57-.29-1,.19-.57-.47-.76-1.24-.85s-.85-.77-.28-1.24c1.62-1.34,2.67-2.2,2.29-4.58M33.74,36.06c-1-2.76.77-6.19,1.72-7.53A12.76,12.76,0,0,0,37.18,16.9c-1.91-5.15-7.73-5.43-11.06-4.67-.67.19-1.43.38-2.29.67m0,0c-2.19.86-4.58,2.48-4.67,6.1a.76.76,0,0,0,.09.38,8,8,0,0,1,.48,1.81m4.1-8.29-7.44,3.33a1,1,0,0,0-.57,1.05l.38,2.2a.75.75,0,0,1-.38.85L2.38,31.2a1,1,0,0,0-.28,1.24l3.14,5.72m13.92-1.24c-.57-.57-7-2.29-8.77-5.24m.09,0L8.77,33.39m1.71-1.71,9.35-10.49M4,12.23l2.29,2.48a.59.59,0,0,0,1-.19h0a.59.59,0,0,1,1-.19l2.28,2.29M9.91,5l.76,2.76a1,1,0,0,0,1.53.48l.1-.1a1,1,0,0,1,1.52.48l.76,2.76M19.73.89l-.86,3.43a.82.82,0,0,0,1,.95h0a.76.76,0,0,1,1,.86l-.38,3M29.65.89,28.12,3.56A1,1,0,0,0,29,5h0a.93.93,0,0,1,.86,1.24l-.77,2.28" transform="translate(-1.5 -0.39)"/></svg>