<svg id="레이어_1" data-name="레이어 1" xmlns="http://www.w3.org/2000/svg" viewBox="0 0 39 38.4"><defs><style>.cls-1{fill:none;}.cls-1,.cls-2{stroke:#333;}.cls-2{fill:#fff;stroke-linecap:round;stroke-linejoin:round;}</style></defs><circle class="cls-1" cx="20.4" cy="19.8" r="18.1"/><circle class="cls-1" cx="36.09" cy="2.91" r="2.41"/><path class="cls-1" d="M20.9,2.51a8,8,0,0,1-6.63,6.63c-1.41.4-4.46.61-5.43-1.81M9.44,14c.21.6.25,1.57,3.62.6,1.92-.55,3.62,1.81,3,3.62a3.06,3.06,0,0,1-3,2.41c-1.61-.2-4.7,0-4.22,2.42,0,.8.73,2.17,3.62,1.2.6-.2,1.81-.12,1.81,1.81m0,3c.2.6,0,1.81-2.41,1.81-1.81,0-1.69,1.44-1.21,4.82M30,4.92,24.52,6.73A3.14,3.14,0,0,0,22.71,11c1,2.42,3.62,2.21,4.83,1.81.6-.2,1.93,0,2.41,2.41s-1.81,3-3,3-3.38.72-2.42,3.62,2.82,3.22,3.62,3c1-.61,3.86-.85,4.83,3m4.82-12.67c-1.81.21-5.06,1.33-3.62,4.23s3,6.43,3.62,7.84" transform="translate(-0.5 -0.8)"/><path class="cls-2" d="M5.22,9.14c-1.45,0-1.81,1.61-1.81,2.42A1.87,1.87,0,0,0,1,13.37c0,1.52,2.21,1.2,3,1.2H6.43c.8,0,3,.24,3-1.2a1.73,1.73,0,0,0-2.11-1.81C7.23,10.75,6.67,9.14,5.22,9.14Z" transform="translate(-0.5 -0.8)"/><path class="cls-2" d="M17.29,23.62c-1.45,0-1.81,1.61-1.81,2.41a1.88,1.88,0,0,0-2.42,1.81c0,1.53,2.22,1.21,3,1.21h2.41c.81,0,3,.24,3-1.21A1.74,1.74,0,0,0,19.4,26C19.3,25.23,18.73,23.62,17.29,23.62Z" transform="translate(-0.5 -0.8)"/><path class="cls-2" d="M34.17,27.24c-1.44,0-1.8,1.61-1.8,2.41A1.88,1.88,0,0,0,30,31.46c0,1.53,1,1.21,1.81,1.21h4.83c.8,0,1.81.24,1.81-1.21a1.74,1.74,0,0,0-2.11-1.81C36.19,28.85,35.62,27.24,34.17,27.24Z" transform="translate(-0.5 -0.8)"/></svg>