<svg id="레이어_1" data-name="레이어 1" xmlns="http://www.w3.org/2000/svg" viewBox="0 0 37 38.22"><defs><style>.cls-1{fill:none;stroke:#333;stroke-linecap:round;stroke-linejoin:round;}</style></defs><path class="cls-1" d="M25.63,36.6l.42-3.12A1,1,0,0,0,25,32.41l-3.5.54c-.51.08-.91-.41-1-.91a1.44,1.44,0,0,0-.58-.88c-.32-.23-.47-.87-.14-1.09h0a.39.39,0,0,0-.1-.7l-.21-.07a.67.67,0,0,1-.29-.91c.22-.56-.46-.73-1.23-.83a.67.67,0,0,1-.33-1.26c1.64-1.3,2.67-2.22,2.24-4.56m14,14.86c-.93-2.79.78-6.2,1.75-7.56a12.79,12.79,0,0,0,1.75-11.63c-1.86-5.12-7.77-5.43-11.07-4.65a21,21,0,0,0-2.34.69m0,0c-2.19.84-4.58,2.46-4.66,6.11a1,1,0,0,0,.06.34,10.34,10.34,0,0,1,.52,1.84m4.08-8.29L16.4,16.79a1,1,0,0,0-.56,1L16.21,20a.94.94,0,0,1-.34.9L2.36,31.71a1,1,0,0,0-.24,1.21l3.11,5.69m14-1.16c-.58-.58-7-2.33-8.74-5.24m0,0L8.73,34m1.75-1.75L19.8,21.74m-15.74-9,2.28,2.48a.56.56,0,0,0,.94-.2h0a.55.55,0,0,1,.92-.22l2.28,2.27M9.89,5.46l.79,2.74a1,1,0,0,0,1.49.5l.11-.08a1,1,0,0,1,1.49.5l.79,2.74M19.8,1.39,19,4.81a.76.76,0,0,0,.92.92h0a.77.77,0,0,1,.94.85l-.42,2.95m9.32-8.14L28.18,4.06A.94.94,0,0,0,29,5.46h0a.93.93,0,0,1,.88,1.23L29.13,9" transform="translate(-1.5 -0.89)"/></svg>