<svg id="레이어_1" data-name="레이어 1" xmlns="http://www.w3.org/2000/svg" viewBox="0 0 38.5 34.57"><defs><style>.cls-1{fill:#fd0031;}.cls-2,.cls-3{fill:none;stroke-linecap:round;stroke-linejoin:round;}.cls-2{stroke:#333;}.cls-3{stroke:#323333;}</style></defs><path class="cls-1" d="M21.76,37l-14.85-7a1.3,1.3,0,0,1,0-2.26l14.85-7a1.35,1.35,0,0,1,1,0l15.48,7.05a1.23,1.23,0,0,1,0,2.26L22.77,37A1.46,1.46,0,0,1,21.76,37Z" transform="translate(-0.5 -2.5)"/><path class="cls-2" d="M19.25,18.1,1,27.54l18.25,8.81,18.87-8.81Z" transform="translate(-0.5 -2.5)"/><path class="cls-1" d="M21.76,29.3,6.91,22.13a1.23,1.23,0,0,1,0-2.27l14.85-7a1.35,1.35,0,0,1,1,0l15.48,7a1.23,1.23,0,0,1,0,2.27L22.77,29.18A1,1,0,0,1,21.76,29.3Z" transform="translate(-0.5 -2.5)"/><path class="cls-3" d="M19.25,10.55,1,20,19.25,28.8,38.12,20Z" transform="translate(-0.5 -2.5)"/><path class="cls-1" d="M21.76,21.63,6.91,14.45a1.3,1.3,0,0,1,0-2.26l14.85-7a1.45,1.45,0,0,1,1,0l15.48,7.05a1.23,1.23,0,0,1,0,2.26L22.77,21.5A1,1,0,0,1,21.76,21.63Z" transform="translate(-0.5 -2.5)"/><path class="cls-2" d="M19.25,3,1,12.44l18.25,8.81,18.87-8.81Z" transform="translate(-0.5 -2.5)"/></svg>