<svg id="레이어_1" data-name="레이어 1" xmlns="http://www.w3.org/2000/svg" viewBox="0 0 39.89 31.72"><defs><style>.cls-1{fill:#fd0031;}.cls-2,.cls-3{fill:none;stroke:#333;}.cls-2{stroke-linecap:round;stroke-linejoin:round;}</style></defs><path class="cls-1" d="M13.87,26.19V23.45A1,1,0,0,1,15,22.36H36.65a1,1,0,0,1,1.1,1.09v.88a1.33,1.33,0,0,0,.44.87l.87.66a1,1,0,0,1,.44.88v7.78a1,1,0,0,1-1.1,1.09H11.78a1,1,0,0,1-1.09-1.09v-6a1,1,0,0,1,1.09-1.1h1A1.27,1.27,0,0,0,13.87,26.19Z" transform="translate(0 -3.89)"/><path class="cls-1" d="M16.38,18.52c-3.5-2-1.42-4.6,0-5.7,3.51-2.52,5.26,1.1,5.7,3.18C21.53,17.75,19.89,20.6,16.38,18.52Z" transform="translate(0 -3.89)"/><path class="cls-2" d="M.5,35.06H4.33m3.84,0H4.33m0,0V11.51c-.21-2.41.88-7.12,6.58-7.12S18,9.1,18,11.51m0,0c-2.19,0-3.84,1.53-3.84,5.48h2.74M18,11.51c3.07,0,3.61,3.62,3.83,5.48H19.12m-2.19,0c0,.55.22,1.64,1.1,1.64s1.09-1.09,1.09-1.64m-2.19,0h2.19" transform="translate(0 -3.89)"/><path class="cls-3" d="M12.55,27.39H11.46a1,1,0,0,0-1.1,1.1V34a1,1,0,0,0,1.1,1.09H13.1A1,1,0,0,0,14.19,34h0m-1.64-6.58h.55a1,1,0,0,1,1.09,1.1v1.64m-1.64-2.74V23.56a1,1,0,0,1,1.1-1.1H23a2,2,0,0,1,2,1.65M37.2,27.39V23.56a1,1,0,0,0-1.1-1.1H26.79a2,2,0,0,0-2,1.65M37.2,27.39h-.55a1,1,0,0,0-1.09,1.1v1.64m1.64-2.74h1.09a1,1,0,0,1,1.1,1.1V34a1,1,0,0,1-1.1,1.09H36.65A1,1,0,0,1,35.56,34h0M14.19,34H35.56M14.19,34V30.13M35.56,34V30.13m0,0H24.82m-10.63,0H24.93m0,0v-6" transform="translate(0 -3.89)"/></svg>