<svg id="레이어_1" data-name="레이어 1" xmlns="http://www.w3.org/2000/svg" viewBox="0 0 39 36.95"><defs><style>.cls-1,.cls-3{fill:none;}.cls-1,.cls-2,.cls-3{stroke:#333;}.cls-2{fill:#fff;}.cls-3{stroke-linecap:round;stroke-linejoin:round;}</style></defs><path class="cls-1" d="M26.54,15.66H13.71a10.22,10.22,0,0,0-9.59,6.68L1.37,29.77a5.87,5.87,0,0,0,3.05,7.38l.79.37a5,5,0,0,0,6.52-2.26,5,5,0,0,1,4.43-2.72H23a6,6,0,0,1,5,2.65,6.05,6.05,0,0,0,10.73-5.35L36.22,22.6A10.22,10.22,0,0,0,26.54,15.66Z" transform="translate(-0.5 -1.52)"/><circle class="cls-2" cx="14.6" cy="30.9" r="2.56"/><circle class="cls-2" cx="22.84" cy="22.09" r="1.7"/><circle class="cls-2" cx="29.66" cy="22.09" r="1.7"/><path class="cls-3" d="M13.11,20.21c-1.7,0-1.27,1.56-1.27,2.13-.71,0-2.14,0-2.14,1.28s.43,1.27,2.14,1.27c0,.71-.43,2.13,1.27,2.13s1.28-1.42,1.28-2.13c.71,0,2.13.2,2.13-1.27s-1.42-1.28-2.13-1.28C14.39,21.77,14.82,20.21,13.11,20.21Z" transform="translate(-0.5 -1.52)"/><circle class="cls-2" cx="24.83" cy="30.9" r="2.56"/><path class="cls-3" d="M14.82,15.66c0-1.33.57-3.41,4-3.41h2m5.4,3.41a3.29,3.29,0,0,0-3.41-3.41h-2m0,0c.29-1.51-.17-4.54-4.26-4.54H8.57A2.74,2.74,0,0,1,5.73,4.87,2.74,2.74,0,0,1,8.57,2H20.5" transform="translate(-0.5 -1.52)"/></svg>