<svg id="레이어_1" data-name="레이어 1" xmlns="http://www.w3.org/2000/svg" viewBox="0 0 39 38.86"><defs><style>.cls-1{fill:#fd0031;}.cls-2{fill:none;}.cls-2,.cls-3{stroke:#333;}.cls-3{fill:#fff;stroke-linecap:round;stroke-linejoin:round;}</style></defs><circle class="cls-1" cx="20.53" cy="20.89" r="17.97"/><circle class="cls-2" cx="20.4" cy="19.8" r="18.1"/><circle class="cls-2" cx="36.09" cy="2.91" r="2.41"/><path class="cls-2" d="M20.9,2a8.07,8.07,0,0,1-6.63,6.63c-1.45.36-4.46.6-5.43-1.81m.6,6.64c.25.6.25,1.56,3.62.6,1.93-.6,3.62,1.81,3,3.62a3.07,3.07,0,0,1-3,2.41c-1.56-.24-4.7,0-4.22,2.41,0,.85.73,2.17,3.62,1.21.6-.24,1.81-.12,1.81,1.81m0,3c.24.6,0,1.8-2.41,1.8-1.81,0-1.69,1.45-1.21,4.83M30,4.44,24.52,6.25a3.15,3.15,0,0,0-1.81,4.22c1,2.41,3.62,2.17,4.83,1.81.6-.24,1.93,0,2.41,2.41s-1.81,3-3,3-3.38.72-2.42,3.62,2.78,3.25,3.62,3c1-.6,3.86-.84,4.83,3m4.82-12.67c-1.81.24-5.06,1.33-3.62,4.22s3,6.4,3.62,7.85" transform="translate(-0.5 -0.32)"/><path class="cls-3" d="M5.22,8.66c-1.45,0-1.81,1.57-1.81,2.41A1.86,1.86,0,0,0,1,12.88c0,1.57,2.17,1.21,3,1.21H6.43c.84,0,3,.24,3-1.21a1.74,1.74,0,0,0-2.17-1.81C7.27,10.23,6.67,8.66,5.22,8.66Z" transform="translate(-0.5 -0.32)"/><path class="cls-3" d="M17.29,23.14c-1.45,0-1.81,1.56-1.81,2.41a1.86,1.86,0,0,0-2.42,1.81c0,1.57,2.17,1.21,3,1.21h2.41c.85,0,3,.24,3-1.21a1.74,1.74,0,0,0-2.17-1.81C19.34,24.7,18.73,23.14,17.29,23.14Z" transform="translate(-0.5 -0.32)"/><path class="cls-3" d="M34.17,26.76c-1.44,0-1.8,1.56-1.8,2.41A1.86,1.86,0,0,0,30,31c0,1.57,1,1.2,1.81,1.2h4.83c.84,0,1.81.25,1.81-1.2a1.74,1.74,0,0,0-2.17-1.81C36.23,28.32,35.62,26.76,34.17,26.76Z" transform="translate(-0.5 -0.32)"/></svg>