<svg id="레이어_1" data-name="레이어 1" xmlns="http://www.w3.org/2000/svg" viewBox="0 0 36 39.18"><defs><style>.cls-1{fill:none;stroke:#333;stroke-linecap:round;stroke-linejoin:round;}</style></defs><path class="cls-1" d="M12.93,13.64H5.3v3.81m7.63-3.81,7.64,3.81m-7.64-3.81c-.63-.22-.89-1.53.64-5.09M28.2,13.64h7v3.81m-7-3.81-7.63,3.81m7.63-3.81c.43,0,.9-1-.63-5.09m-7,8.9v19.1m0,0H18.66c0-2-2.55-2.55-3.82-2.55H5.3V17.45m15.27,19.1h1.91c0-.85.25-2.55,3.82-2.55h8.9V17.45M13.57,8.55l7,1.9m-7-1.9L5.93,6l14-5.09L34.57,6m-7,2.55-7,1.9m7-1.9L33.3,6.46m-12.73,4v3.82M34.57,6H21.84M34.57,6l-1.27.46m0,0V9.18m-28,8.27H2.75V37.18H14.84l1.91,1.91h7l1.91-1.91H37.75V17.45H35.2M8.48,21.27h4.45m2.55,0h1.27M8.48,24.45h1.91m1.91,0h5.09M8.48,27.64h4.45m1.91,0h2.55m5.72-6.37H28.2m1.91,0H32m-8.91,3.18h2.55m1.91,0h5.09m-9.55,3.19H28.2m1.91,0h2.55m.64-16.55v.64" transform="translate(-2.25 -0.41)"/></svg>