<svg id="Layer_1" data-name="Layer 1" xmlns="http://www.w3.org/2000/svg" viewBox="0 0 512.01 512.09"><defs><style>.cls-1{fill:#fff;}</style></defs><title>link</title><path class="cls-1" d="M312.45,199.6a116.2,116.2,0,0,0-20.05-16.13A119.48,119.48,0,0,0,143.49,199.6L35,308.23a119.47,119.47,0,0,0,168.87,169l89.6-89.6a8.53,8.53,0,0,0-6.06-14.59H284a143.57,143.57,0,0,1-54.61-10.58,8.54,8.54,0,0,0-9.3,1.88l-64.43,64.51a51.23,51.23,0,0,1-72.45-72.45l109-108.88a51.2,51.2,0,0,1,72.37,0,35,35,0,0,0,47.95,0,33.8,33.8,0,0,0,0-48Z" transform="translate(-0.04 0)"/><path class="cls-1" d="M477.06,35a119.49,119.49,0,0,0-169,0l-89.51,89.43A8.56,8.56,0,0,0,224.82,139H228a143.41,143.41,0,0,1,54.53,10.67,8.52,8.52,0,0,0,9.3-1.88l64.26-64.17a51.23,51.23,0,0,1,72.45,72.45l-80.05,80-.68.77-28,27.82a51.21,51.21,0,0,1-72.36,0,35,35,0,0,0-48,0,34,34,0,0,0,0,48.12,118.57,118.57,0,0,0,34.13,23.9c1.79.85,3.59,1.53,5.38,2.3s3.67,1.36,5.46,2.05,3.67,1.28,5.46,1.79l5,1.36c3.41.86,6.82,1.54,10.32,2.14A120.26,120.26,0,0,0,278,347.48h6.48l5.12-.59c1.88-.09,3.84-.52,6.06-.52h2.9l5.89-.85,2.73-.51,4.95-1h.94a119.47,119.47,0,0,0,55.38-31.41L477.06,204A119.47,119.47,0,0,0,477.06,35Z" transform="translate(-0.04 0)"/></svg>