<svg id="Layer_1" data-name="Layer 1" xmlns="http://www.w3.org/2000/svg" viewBox="0 0 324.22 238.79"><defs><style>.cls-1,.cls-2,.cls-5{fill:#fff;}.cls-2,.cls-3{stroke:#666766;}.cls-2,.cls-3,.cls-5{stroke-miterlimit:10;stroke-width:3px;}.cls-3{fill:none;}.cls-4{isolation:isolate;font-size:34.48px;fill:#666766;font-family:NotoSansKR-Black-KSCpc-EUC-H, Noto Sans KR;letter-spacing:0.05em;}.cls-5{stroke:#666;}.cls-6{font-size:14.38px;fill:#666;font-family:NotoSansKR-Bold-KSCpc-EUC-H, Noto Sans KR;font-weight:700;}</style></defs><title>pc_active</title><rect class="cls-1" x="135.37" y="201.48" width="55.08" height="17.94"/><rect class="cls-2" x="37.91" y="37.69" width="250" height="163.79" rx="5" ry="5"/><rect class="cls-3" x="52.28" y="52.06" width="221.26" height="135.06" rx="5" ry="5"/><text class="cls-4" transform="translate(122.08 133.42)">Q&amp;A</text><path class="cls-2" d="M106.84,225.93H243.16a5,5,0,0,1,5,5V243.8H101.84V230.93A5,5,0,0,1,106.84,225.93Z" transform="translate(-12.09 -6.51)"/><line class="cls-3" x1="135.37" y1="219.42" x2="135.37" y2="201.48"/><line class="cls-3" x1="190.45" y1="201.48" x2="190.45" y2="219.42"/><circle class="cls-5" cx="261.12" cy="13.92" r="12.42"/><text class="cls-6" transform="translate(260.15 22.73) rotate(-45)">￦</text><circle class="cls-5" cx="13.92" cy="182.43" r="12.42"/><text class="cls-6" transform="translate(12.95 191.25) rotate(-45)">￦</text><circle class="cls-5" cx="310.3" cy="187.12" r="12.42"/><text class="cls-6" transform="translate(301.48 186.15) rotate(45)">￦</text></svg>