<svg id="Layer_1" data-name="Layer 1" xmlns="http://www.w3.org/2000/svg" viewBox="0 0 253 213.42"><defs><style>.cls-1,.cls-3{fill:#fff;}.cls-2,.cls-4{fill:none;}.cls-2,.cls-3,.cls-4{stroke:#666766;stroke-miterlimit:10;}.cls-2,.cls-3{stroke-width:3px;}.cls-4{stroke-width:5px;}.cls-5{fill:#666766;}</style></defs><title>send</title><rect class="cls-1" x="21.16" y="34.04" width="212" height="100"/><path class="cls-2" d="M150,161.46" transform="translate(-23.51 -43.29)"/><path class="cls-2" d="M150,139.84" transform="translate(-23.51 -43.29)"/><path class="cls-3" d="M30.74,117.12V66.41A21.62,21.62,0,0,1,52.35,44.79H247.67a21.62,21.62,0,0,1,21.61,21.62v50.71" transform="translate(-23.51 -43.29)"/><path class="cls-2" d="M150,139.84" transform="translate(-23.51 -43.29)"/><path class="cls-2" d="M150,161.46" transform="translate(-23.51 -43.29)"/><path class="cls-3" d="M253.4,255.21H46.62A21.62,21.62,0,0,1,25,233.59V131c0-.74,0-1.48.11-2.21,1.42-13.94,17.14-21.6,29.65-15.3l81.43,41a30.69,30.69,0,0,0,27.63,0l81.42-41c12.51-6.3,28.23,1.36,29.65,15.3.07.73.11,1.47.11,2.21V233.59A21.62,21.62,0,0,1,253.4,255.21Z" transform="translate(-23.51 -43.29)"/><polyline class="cls-4" points="144.04 84.77 108.96 56.01 144.04 27.26"/><circle class="cls-5" cx="144.04" cy="27.26" r="12.5"/><circle class="cls-5" cx="144.04" cy="84.77" r="12.5"/><circle class="cls-5" cx="108.96" cy="56.01" r="12.5"/></svg>