<svg id="Capa_1" data-name="Capa 1" xmlns="http://www.w3.org/2000/svg" viewBox="0 0 120 120"><defs><style>.cls-1,.cls-2{fill:none;stroke:#ff0652;}.cls-1{stroke-miterlimit:10;stroke-width:7px;}.cls-2{stroke-linecap:round;stroke-linejoin:round;stroke-width:5px;}</style></defs><path class="cls-1" d="M106.09,21.69a27.36,27.36,0,0,0-20.8-9.36c-11.37,0-18.57,6.79-22.6,12.49A42,42,0,0,0,60,29.17a42,42,0,0,0-2.69-4.35c-4-5.7-11.23-12.49-22.6-12.49a27.36,27.36,0,0,0-20.8,9.36A32.77,32.77,0,0,0,6,43.42c0,9,3.51,17.33,11,26.29,6.73,8,16.41,16.25,27.62,25.8,4.17,3.55,8.49,7.24,13.09,11.26l.14.12a3.16,3.16,0,0,0,4.16,0l.14-.12c4.6-4,8.92-7.7,13.09-11.26C86.52,86,96.2,77.71,102.93,69.71c7.52-9,11-17.31,11-26.29A32.77,32.77,0,0,0,106.09,21.69Z"/><polyline class="cls-2" points="76.85 83.5 60 40.5 43.15 83.5"/><line class="cls-2" x1="41.79" y1="66.2" x2="78.21" y2="66.2"/></svg>