<svg id="Capa_1" data-name="Capa 1" xmlns="http://www.w3.org/2000/svg" viewBox="0 0 106.1 106.1"><defs><style>.cls-1{fill:#999;}</style></defs><path class="cls-1" d="M90.5,15.5a53,53,0,1,0,0,75A53.05,53.05,0,0,0,90.5,15.5ZM87.16,87.16a48.24,48.24,0,1,1,0-68.22A48.31,48.31,0,0,1,87.16,87.16ZM-80.51,35.54a7.4,7.4,0,0,1,7.36-7.36,7.39,7.39,0,0,1,7.36,7.36,7.39,7.39,0,0,1-7.36,7.36A7.4,7.4,0,0,1-80.51,35.54Zm33.48,0a7.39,7.39,0,0,1,7.36-7.36,7.4,7.4,0,0,1,7.36,7.36,7.4,7.4,0,0,1-7.36,7.36A7.39,7.39,0,0,1-47,35.54ZM-29.7,65.69c-8.75,22.9-46.09,22.61-54.6-.12-1.74-4.27,4.72-6.89,6.53-2.73,6.47,17.1,34.82,17.18,41.42,0C-34.51,58.59-27.88,61.4-29.7,65.69ZM81.6,77.38a3.55,3.55,0,1,1-6.55,2.73A22.27,22.27,0,0,0,54.34,67c-9.41,0-17.51,5.12-20.84,13.09a3.58,3.58,0,0,1-3.33,2.27,5.86,5.86,0,0,1-1.43-.24,3.51,3.51,0,0,1-1.91-4.65C31.24,66.9,42.07,60,54.34,60,66.36,60,77.08,66.78,81.6,77.38Zm-52.15-42a7.39,7.39,0,1,1,7.38,7.38A7.43,7.43,0,0,1,29.45,35.35Zm33.58,0a7.38,7.38,0,1,1,7.38,7.38A7.42,7.42,0,0,1,63,35.35Z"/></svg>