<?xml version="1.0" encoding="utf-8"?>
<!-- Generator: Adobe Illustrator 24.2.1, SVG Export Plug-In . SVG Version: 6.00 Build 0)  -->
<svg version="1.1" id="Capa_1" xmlns="http://www.w3.org/2000/svg" xmlns:xlink="http://www.w3.org/1999/xlink" x="0px" y="0px"
	 viewBox="0 0 106.1 106.1" style="enable-background:new 0 0 106.1 106.1;" xml:space="preserve">
<style type="text/css">
	.st0{fill:#FD0031;}
</style>
<path class="st0" d="M90.5,15.5c-20.7-20.7-54.3-20.7-75,0s-20.7,54.3,0,75c20.7,20.7,54.2,20.7,74.9,0
	C111.2,69.8,111.2,36.2,90.5,15.5z M87.2,87.2c-18.8,18.8-49.4,18.8-68.2,0s-18.8-49.4,0-68.2s49.4-18.8,68.2,0c0,0,0,0,0,0
	C106,37.8,106,68.3,87.2,87.2z M29.5,35.5c0-4.1,3.3-7.4,7.4-7.4s7.4,3.3,7.4,7.4s-3.3,7.4-7.4,7.4l0,0
	C32.8,42.9,29.5,39.6,29.5,35.5z M63,35.5c0-4.1,3.3-7.4,7.4-7.4c4.1,0,7.4,3.3,7.4,7.4s-3.3,7.4-7.4,7.4C66.3,42.9,63,39.6,63,35.5
	L63,35.5z M80.3,65.7C75.8,76.3,65.1,83,53.1,83c-12.2,0-23-6.9-27.4-17.4c-0.7-1.8,0.1-3.9,1.9-4.6c0.4-0.2,0.9-0.3,1.3-0.2
	c1.4,0,2.7,0.8,3.3,2.1c3.3,8,11.5,13.1,20.8,13.1c8.9,0.2,17-5,20.7-13.1c0.9-1.8,3-2.6,4.8-1.7C80.2,61.9,81,63.9,80.3,65.7z
	 M221.6,77.4c0.8,1.8,0,3.9-1.8,4.7c-1.8,0.8-3.9,0-4.7-1.8c0-0.1-0.1-0.1-0.1-0.2c-3.7-8.1-11.8-13.3-20.7-13.1
	c-9.4,0-17.5,5.1-20.8,13.1c-0.5,1.4-1.9,2.3-3.3,2.3c-0.5,0-1-0.1-1.4-0.2c-1.8-0.7-2.7-2.8-1.9-4.6c0,0,0-0.1,0-0.1
	c4.4-10.6,15.2-17.5,27.5-17.5C206.4,60,217.1,66.8,221.6,77.4z M169.5,35.4c0-4.1,3.3-7.4,7.4-7.4c4.1,0,7.4,3.3,7.4,7.4
	c0,4.1-3.3,7.4-7.4,7.4c0,0,0,0,0,0C172.8,42.7,169.5,39.4,169.5,35.4L169.5,35.4z M203,35.4c0-4.1,3.3-7.4,7.4-7.4
	c4.1,0,7.4,3.3,7.4,7.4s-3.3,7.4-7.4,7.4C206.3,42.8,203,39.4,203,35.4L203,35.4z"/>
</svg>
