<svg width="48" height="49" viewBox="0 0 48 49" fill="none" xmlns="http://www.w3.org/2000/svg">
<path d="M32.2176 6.77871C32.4317 6.01408 32.1654 5.19452 31.5427 4.70176C32.3361 4.66909 33.0333 4.16258 33.3095 3.41813C33.5857 4.16258 34.2829 4.66909 35.0763 4.70176C34.4536 5.19452 34.1873 6.01408 34.4014 6.77871C33.7404 6.33881 32.8786 6.33881 32.2176 6.77871Z" stroke="#333333" stroke-width="2"/>
<path d="M41.9992 34.5121C42.0462 34.0116 41.884 33.5121 41.5517 33.1348C42.0423 33.0249 42.4671 32.7162 42.7233 32.2837C42.9794 32.7162 43.4042 33.0249 43.8948 33.1348C43.5626 33.5121 43.4003 34.0116 43.4473 34.5121C42.9858 34.3127 42.4607 34.3127 41.9992 34.5121Z" stroke="#333333" stroke-width="2"/>
<path d="M14.2286 14.6891C16.1368 12.781 35.854 33.3887 34.4547 35.5512M14.2286 14.6891C12.8293 16.0884 31.4017 35.5512 34.4547 35.5512M14.2286 14.6891L11.4353 21.742M34.4547 35.5512L27.3674 38.6114M22.3699 15.0707L25.4229 10.2368M27.3674 21.742L35.8021 14.6891M34.4547 27.1555L40.0518 25.1201M11.4353 21.742C10.4981 24.085 17.9955 34.8626 27.3674 38.6114M11.4353 21.742L8.6237 29.2395M27.3674 38.6114L19.8699 41.4229M8.6237 29.2395C8.6237 31.1139 12.3724 37.6742 19.8699 41.4229M8.6237 29.2395L5.81214 35.7998M19.8699 41.4229L12.3724 44.2345M5.81214 35.7998L1.88634 46.2488C1.58661 47.0466 2.35826 47.8297 3.16035 47.5417L12.3724 44.2345M5.81214 35.7998C5.81214 37.6742 7.68651 42.3601 12.3724 44.2345" stroke="#333333" stroke-width="2" stroke-linecap="round" stroke-linejoin="round"/>
<circle cx="16.7724" cy="6.03879" r="1.54416" stroke="#333333" stroke-width="2"/>
<circle cx="41.9602" cy="15.4519" r="2.05299" stroke="#333333" stroke-width="2"/>
</svg>
