<svg width="49" height="31" viewBox="0 0 49 31" fill="none" xmlns="http://www.w3.org/2000/svg">
<path d="M40.1168 8.44637H36.8002M32.9734 8.44637H29.6568M25.83 8.44637H22.3858M18.6866 8.44637H15.1149M11.5432 8.44637H7.84388M40.1168 15.666H36.8002M32.9734 15.666H29.6568M25.83 15.666H22.3858M18.6866 15.666H15.1149M11.5432 15.666H7.84388M40.1168 22.5121H36.8002M32.9734 22.5121H15.1149M11.5432 22.5121H7.84388M44.2603 29.1094H4.33827C2.68141 29.1094 1.33827 27.7662 1.33827 26.1094V4.97363C1.33827 3.31678 2.68141 1.97363 4.33827 1.97363H44.2603C45.9171 1.97363 47.2603 3.31678 47.2603 4.97363V26.1094C47.2603 27.7662 45.9171 29.1094 44.2603 29.1094Z" stroke="#333333" stroke-width="2" stroke-linecap="round" stroke-linejoin="round"/>
</svg>
