<svg width="49" height="47" viewBox="0 0 49 47" fill="none" xmlns="http://www.w3.org/2000/svg">
<path d="M1.19336 34.1527V14.7935C1.19336 13.9327 1.74422 13.1684 2.5609 12.8962L13.7727 9.15891C13.9295 9.10666 14.0792 9.03517 14.2183 8.94609L24.28 2.50661C25.6113 1.65463 27.3581 2.61065 27.3581 4.19116V43.3379C27.3581 44.9184 25.6113 45.8745 24.28 45.0225L14.3187 38.6472C14.1138 38.5161 13.8867 38.4234 13.6485 38.3738L2.78545 36.1107C1.85801 35.9175 1.19336 35.1001 1.19336 34.1527Z" stroke="#333333" stroke-width="2" stroke-linecap="round" stroke-linejoin="round"/>
<path d="M34.2996 24.0316H47.115M34.2996 39.5169L47.115 43.7887M34.2996 10.1483L47.115 5.87646" stroke="#333333" stroke-width="2" stroke-linecap="round" stroke-linejoin="round"/>
</svg>
