<svg width="29" height="29" viewBox="0 0 29 29" fill="none" xmlns="http://www.w3.org/2000/svg">
<path d="M3.80085 17.09C9.77857 13.8147 9.04751 7.16641 7.81141 3.92149C7.74734 3.7533 7.63606 3.60938 7.48799 3.50709C6.02704 2.49784 3.71228 1.64705 2.06061 1.14433C1.43823 0.954889 0.827641 1.42469 0.828507 2.07526C0.838376 9.48997 0.934756 21.536 1.24807 23.9319C1.28889 24.244 1.583 24.2827 1.89508 24.2418C2.0237 24.2249 2.17089 24.2075 2.32853 24.1923C3.14203 24.1137 4.08071 23.1857 3.94634 22.3795L3.24689 18.1828C3.17307 17.7399 3.40708 17.3057 3.80085 17.09Z" fill="#EE5356"/>
<path d="M25.2426 16.8508C20.0227 13.6551 20.663 7.19932 21.7466 4.04345C21.8034 3.87809 21.9052 3.73383 22.0443 3.62785C23.2788 2.6869 25.198 1.8882 26.6296 1.39422C27.2545 1.17858 27.8833 1.64948 27.8825 2.31057C27.8734 9.50357 27.7891 21.0939 27.5179 23.4984C27.4817 23.8185 27.4962 23.9244 27.1785 23.8709C26.3605 23.7332 25.0381 22.7201 25.1614 21.8998L25.7611 17.9106C25.8247 17.4873 25.6077 17.0742 25.2426 16.8508Z" fill="#EE5356"/>
<path d="M1 27.4415V25.5736C1 25.2568 1.25681 25 1.57359 25H8.03028C8.58257 25 9.03028 25.4477 9.03028 26V27.4415C9.03028 27.9938 8.58257 28.4415 8.03028 28.4415H2C1.44772 28.4415 1 27.9938 1 27.4415Z" fill="#EE5356"/>
<path d="M18.0303 25.9999V27.8678C18.0303 28.1846 17.7735 28.4414 17.4567 28.4414H11C10.4477 28.4414 9.99999 27.9937 9.99999 27.4414V25.9999C9.99999 25.4476 10.4477 24.9999 11 24.9999H17.0303C17.5826 24.9999 18.0303 25.4476 18.0303 25.9999Z" fill="#EE5356"/>
<path d="M26.6392 27.3317V25.4637C26.6392 25.1469 26.3824 24.8901 26.0656 24.8901H19.6089C19.0566 24.8901 18.6089 25.3379 18.6089 25.8901V27.3317C18.6089 27.884 19.0566 28.3317 19.6089 28.3317H25.6392C26.1914 28.3317 26.6392 27.884 26.6392 27.3317Z" fill="#EE5356"/>
<path d="M1 2V28H28V2" stroke="#333333" stroke-width="0.7" stroke-linecap="round" stroke-linejoin="round"/>
<path d="M1 25V27C1 27.5523 1.44772 28 2 28H9C9.55229 28 10 27.5523 10 27V25C10 24.4477 9.55229 24 9 24H2C1.44772 24 1 24.4477 1 25Z" stroke="#333333" stroke-width="0.7"/>
<path d="M10 25V27C10 27.5523 10.4477 28 11 28H18C18.5523 28 19 27.5523 19 27V25C19 24.4477 18.5523 24 18 24H11C10.4477 24 10 24.4477 10 25Z" stroke="#333333" stroke-width="0.7"/>
<path d="M19 25V27C19 27.5523 19.4477 28 20 28H27C27.5523 28 28 27.5523 28 27V25C28 24.4477 27.5523 24 27 24H20C19.4477 24 19 24.4477 19 25Z" stroke="#333333" stroke-width="0.7"/>
<path d="M1.0085 2C0.838742 3 3.14745 5 13.7404 5C26.9815 5 27.6605 3 28 2" stroke="#333333" stroke-width="0.7"/>
<path d="M8 5C8.83333 7.33333 9.0083 13.4 3.0083 17M3.0083 17H1.0083M3.0083 17L4.5 24M5.5083 6.5C6.0083 8.16667 6.2083 11.4 3.0083 15M3.0083 6C3.67497 7.16667 4.1083 9.8 2.5083 13" stroke="#333333" stroke-width="0.7" stroke-linecap="round" stroke-linejoin="round"/>
<path d="M20.5 5C19.6667 7.33333 19.4312 13.4 25.4312 17M25.4312 17H27.4312M25.4312 17L24 24M22.9312 6.5C22.4312 8.16667 22.2312 11.4 25.4312 15M25.4312 6C24.7645 7.16667 24.3312 9.8 25.9312 13" stroke="#333333" stroke-width="0.7" stroke-linecap="round" stroke-linejoin="round"/>
<path d="M4 21H24.5938M6.15385 2C8.66667 3.23577 15.6308 4.96585 23.3846 2" stroke="#333333" stroke-width="0.7" stroke-linecap="round" stroke-linejoin="round"/>
</svg>
