<?xml version="1.0" encoding="utf-8"?>
<!-- Generator: Adobe Illustrator 24.2.1, SVG Export Plug-In . SVG Version: 6.00 Build 0)  -->
<svg version="1.1" id="레이어_1" xmlns="http://www.w3.org/2000/svg" xmlns:xlink="http://www.w3.org/1999/xlink" x="0px"
	 y="0px" viewBox="0 0 50 31" style="enable-background:new 0 0 50 31;" xml:space="preserve">
<style type="text/css">
	.st0{fill:#FD0031;}
	.st1{fill:none;stroke:#333333;}
	.st2{fill:#FFFFFF;}
	.st3{fill:none;stroke:#333333;stroke-linecap:round;stroke-linejoin:round;}
</style>
<path class="st0" d="M12.1,12.1c1.7-1.8,3.6-3.8,5.1-5.4C18.8,5,21,4,23.3,4h15.1C38.7,4,39,4.3,39,4.7v6.5c0,1.1,0.9,2,2,2
	c1.1,0,2,0.9,2,2v9.8c0,2.8-2.3,5.1-5.1,5.1h-4.5c-0.4,0-0.7-0.3-0.7-0.6c0-1.1-0.9-2-1.9-2H8.4c-0.4,0-0.8-0.2-1.1-0.6
	c-0.6-0.9,0.1-2,1.1-2h0.1c0.2,0,0.5-0.1,0.7-0.2l0,0c0.5-0.3,0.8-0.8,0.8-1.3v-5.7C10,15.5,10.8,13.6,12.1,12.1z"/>
<path class="st1" d="M19.5,23.6H2.1c-0.6,0-1,0.4-1,1v4.3c0,0.6,0.4,1,1,1h38.2c0.6,0,1-0.4,1-1v-4.3c0-0.6-0.4-1-1-1H33
	c-0.6,0-1,0.4-1,1v1.1c0,0.6-0.4,1-1,1h-9.4c-0.6,0-1-0.4-1-1v-1.1C20.5,24,20.1,23.6,19.5,23.6z"/>
<path class="st2" d="M37.6,24.9V10.2c0-0.6,0.4-1,1-1h2.1h1.9h5.3c0.6,0,1,0.4,1,1v19.3c0,0.6-0.4,1-1,1h-9.3c-0.6,0-1-0.4-1-1V24.9
	z"/>
<path class="st3" d="M5.5,23V2c0-0.6,0.4-1,1-1h35c0.6,0,1,0.4,1,1v7.2 M42.6,9.2h5.3c0.6,0,1,0.4,1,1v19.3c0,0.6-0.4,1-1,1h-9.3
	c-0.6,0-1-0.4-1-1v-4.6V10.2c0-0.6,0.4-1,1-1h2.1 M42.6,9.2h-1.9 M7.4,23V3.9c0-0.6,0.4-1,1-1h31.3c0.6,0,1,0.4,1,1v5.3 M41.3,28.6
	h3.8 M23.7,6L12.4,17.3 M11.8,21.1L27.5,5.4 M40.4,26.7H46c0.6,0,1-0.4,1-1V12c0-0.6-0.4-1-1-1h-5.5c-0.6,0-1,0.4-1,1v13.7
	C39.4,26.3,39.9,26.7,40.4,26.7z"/>
</svg>
