<svg width="37" height="29" viewBox="0 0 37 29" fill="none" xmlns="http://www.w3.org/2000/svg">
<path d="M1 28.5H4.5M8 28.5H4.5M4.5 28.5V7C4.33333 4.83333 5.3 0.5 10.5 0.5C15.7 0.5 17 4.83333 17 7M17 7C15 7 13.5 8.4 13.5 12H16M17 7C19.8 7 20.3333 10.3333 20.5 12H18M16 12C16 12.5 16.2 13.5 17 13.5C17.8 13.5 18 12.5 18 12M16 12H18" stroke="#333333" stroke-linecap="round" stroke-linejoin="round"/>
<path d="M12 21.5H11C10.4477 21.5 10 21.9477 10 22.5V27.5C10 28.0523 10.4477 28.5 11 28.5H12.5C13.0523 28.5 13.5 28.0523 13.5 27.5V27.5M12 21.5H12.5C13.0523 21.5 13.5 21.9477 13.5 22.5V24M12 21.5V18C12 17.4477 12.4477 17 13 17H21.5C22.7 17 23.1667 18 23.25 18.5M34.5 21.5V18C34.5 17.4477 34.0523 17 33.5 17H25C23.8 17 23.3333 18 23.25 18.5M34.5 21.5H34C33.4477 21.5 33 21.9477 33 22.5V24M34.5 21.5H35.5C36.0523 21.5 36.5 21.9477 36.5 22.5V27.5C36.5 28.0523 36.0523 28.5 35.5 28.5H34C33.4477 28.5 33 28.0523 33 27.5V27.5M13.5 27.5H33M13.5 27.5V24M33 27.5V24M33 24H23.25M13.5 24H23.25M23.25 24C23.25 21.8071 23.25 20.3871 23.25 18.5" stroke="#333333"/>
</svg>
