<svg width="36" height="34" viewBox="0 0 36 34" fill="none" xmlns="http://www.w3.org/2000/svg">
<path d="M23.8121 13H12.5247C8.75987 13 5.39284 15.3434 4.08512 18.8739L1.66309 25.4126C0.724337 27.947 1.89307 30.777 4.34655 31.9105L5.04411 32.2327C7.18014 33.2195 9.71416 32.3417 10.782 30.245C11.5294 28.7776 13.0369 27.8537 14.6837 27.8537H20.6641C22.4244 27.8537 24.0703 28.7255 25.0592 30.1818C26.5465 32.3718 29.4225 33.1311 31.7988 31.9646C34.1997 30.7861 35.3565 28.0071 34.4966 25.4746L32.3342 19.1064C31.0947 15.4557 27.6675 13 23.8121 13Z" stroke="#333333"/>
<circle cx="13.75" cy="27.75" r="2.25" fill="white" stroke="#333333"/>
<circle cx="21" cy="20" r="1.5" fill="white" stroke="#333333"/>
<circle cx="27" cy="20" r="1.5" fill="white" stroke="#333333"/>
<path d="M12 17C10.5 17 10.875 18.375 10.875 18.875C10.25 18.875 8.9999 18.875 9 20C9.0001 21.125 9.375 21.125 10.875 21.125C10.875 21.75 10.5 23 12 23C13.5 23 13.125 21.75 13.125 21.125C13.75 21.125 15 21.2969 15 20C15 18.7031 13.75 18.875 13.125 18.875C13.125 18.375 13.5 17 12 17Z" stroke="#333333" stroke-linecap="round" stroke-linejoin="round"/>
<circle cx="22.75" cy="27.75" r="2.25" fill="white" stroke="#333333"/>
<path d="M13.5 13C13.5 11.8333 14 10 17 10L18.75 10M23.5 13C23.5 10.6 21.5 10 20.5 10L18.75 10M18.75 10C19 8.66668 18.6 6 15 6H8C7.16667 6 5.5 5.5 5.5 3.5C5.5 1.5 7.16667 1 8 1H18.5" stroke="#333333" stroke-linecap="round" stroke-linejoin="round"/>
</svg>
