<svg width="29" height="32" viewBox="0 0 29 32" fill="none" xmlns="http://www.w3.org/2000/svg">
<path d="M9.09349 3.34524L18.1555 0.324565C18.3768 0.250815 18.6168 0.256715 18.8342 0.341243L26.4127 3.28843C27.2644 3.61968 27.2622 4.82571 26.4092 5.15378L22.0068 6.847C21.6206 6.99554 21.3658 7.36658 21.3658 7.78035V8.38791C21.3658 8.9402 21.8135 9.38791 22.3658 9.38791H25.5281C26.0804 9.38791 26.5281 9.83563 26.5281 10.3879V10.6823C26.5281 11.2346 26.9759 11.6823 27.5281 11.6823H27.8225C28.3748 11.6823 28.8225 12.13 28.8225 12.6823V14.5502V29.0372C28.8225 29.5895 28.3748 30.0372 27.8225 30.0372H19.033C18.6987 30.0372 18.3865 30.2043 18.201 30.4825L17.6475 31.3127C17.4621 31.5909 17.1498 31.758 16.8155 31.758H10.3082C10.043 31.758 9.78862 31.6526 9.60109 31.4651L8.4661 30.3301C8.27856 30.1426 8.02421 30.0372 7.75899 30.0372H4.58447C4.03219 30.0372 3.58447 29.5895 3.58447 29.0372V13.8295C3.58447 13.2772 4.03219 12.8295 4.58447 12.8295H7.37769C7.84335 12.8295 8.24738 12.5081 8.35208 12.0543L9.70425 6.19496C9.81182 5.72879 9.54736 5.25723 9.09349 5.10594C8.24746 4.82393 8.24746 3.62725 9.09349 3.34524Z" fill="#ED3939"/>
<path d="M9 11H3V14M9 11L15 14M9 11C8.5 10.8333 8.3 9.8 9.5 7M21 11H26.5V14M21 11L15 14M21 11C21.3333 11 21.7 10.2 20.5 7M15 14V29M15 29H13.5C13.5 27.4 11.5 27 10.5 27H3V14M15 29H16.5C16.5 28.3333 16.7 27 19.5 27H26.5V14M9.5 7L15 8.5M9.5 7L3.5 5L14.5 1L26 5M20.5 7L15 8.5M20.5 7L25 5.36364M15 8.5V11.5M26 5H16M26 5L25 5.36364M25 5.36364V7.5M3 14H1V29.5H10.5L12 31H17.5L19 29.5H28.5V14H26.5M5.5 17H9M11 17H12M5.5 19.5H7M8.5 19.5H12.5M5.5 22C5.5 22 7.4379 22 9 22M10.5 22H12.5M17 17H21M22.5 17H24M17 19.5H19M20.5 19.5H24.5M17 22C17 22 19.2426 22 21 22M22.5 22H24.5M25 9V9.5" stroke="#333333" stroke-linecap="round" stroke-linejoin="round"/>
</svg>
