<?xml version="1.0" encoding="utf-8"?>
<!-- Generator: Adobe Illustrator 24.2.1, SVG Export Plug-In . SVG Version: 6.00 Build 0)  -->
<svg version="1.1" id="레이어_1" xmlns="http://www.w3.org/2000/svg" xmlns:xlink="http://www.w3.org/1999/xlink" x="0px"
	 y="0px" viewBox="0 0 33 33" style="enable-background:new 0 0 33 33;" xml:space="preserve">
<style type="text/css">
	.st0{fill:#FD0031;}
	.st1{fill:none;stroke:#333333;}
	.st2{fill:#FFFFFF;stroke:#333333;stroke-linecap:round;stroke-linejoin:round;}
</style>
<circle class="st0" cx="17.6" cy="17.4" r="14.9"/>
<circle class="st1" cx="17.5" cy="16.5" r="15"/>
<circle class="st1" cx="30.5" cy="2.5" r="2"/>
<path class="st1" d="M17.5,1.5C17.3,3,16,6.2,12,7c-1.2,0.3-3.7,0.5-4.5-1.5 M8,11c0.2,0.5,0.2,1.3,3,0.5c1.6-0.5,3,1.5,2.5,3
	c-0.5,1.5-1.5,2-2.5,2c-1.3-0.2-3.9,0-3.5,2c0,0.7,0.6,1.8,3,1C11,19.3,12,19.4,12,21 M12,23.5c0.2,0.5,0,1.5-2,1.5
	c-1.5,0-1.4,1.2-1,4 M25,3.5L20.5,5c-0.8,0.3-2.3,1.5-1.5,3.5s3,1.8,4,1.5c0.5-0.2,1.6,0,2,2s-1.5,2.5-2.5,2.5s-2.8,0.6-2,3
	s2.3,2.7,3,2.5c0.8-0.5,3.2-0.7,4,2.5 M31.5,12c-1.5,0.2-4.2,1.1-3,3.5s2.5,5.3,3,6.5"/>
<path class="st2" d="M4.5,7C3.3,7,3,8.3,3,9c-0.5-0.2-2,0-2,1.5c0,1.3,1.8,1,2.5,1h2c0.7,0,2.5,0.2,2.5-1S7,8.8,6.2,9
	C6.2,8.3,5.7,7,4.5,7z"/>
<path class="st2" d="M14.5,19c-1.2,0-1.5,1.3-1.5,2c-0.5-0.2-2,0-2,1.5c0,1.3,1.8,1,2.5,1h2c0.7,0,2.5,0.2,2.5-1s-1-1.7-1.8-1.5
	C16.2,20.3,15.7,19,14.5,19z"/>
<path class="st2" d="M28.5,22c-1.2,0-1.5,1.3-1.5,2c-0.5-0.2-2,0-2,1.5c0,1.3,0.8,1,1.5,1h4c0.7,0,1.5,0.2,1.5-1s-1-1.7-1.8-1.5
	C30.2,23.3,29.7,22,28.5,22z"/>
</svg>
