<?xml version="1.0" encoding="utf-8"?>
<!-- Generator: Adobe Illustrator 24.2.1, SVG Export Plug-In . SVG Version: 6.00 Build 0)  -->
<svg version="1.1" id="레이어_1" xmlns="http://www.w3.org/2000/svg" xmlns:xlink="http://www.w3.org/1999/xlink" x="0px"
	 y="0px" viewBox="0 0 33 29" style="enable-background:new 0 0 33 29;" xml:space="preserve">
<style type="text/css">
	.st0{fill:#FD0031;}
	.st1{fill:none;stroke:#333333;stroke-linecap:round;stroke-linejoin:round;}
	.st2{fill:none;stroke:#323333;stroke-miterlimit:10;}
</style>
<path class="st0" d="M17.5,28L5.7,22.4C5,22,5,20.9,5.7,20.6L17.5,15c0.3-0.1,0.6-0.1,0.8,0l12.3,5.6c0.8,0.4,0.8,1.5,0,1.8L18.3,28
	C18.1,28.1,17.7,28.1,17.5,28z"/>
<path class="st1" d="M15.5,13L1,20.5l14.5,7l15-7L15.5,13z"/>
<path class="st0" d="M17.5,21.9L5.7,16.2c-0.8-0.4-0.8-1.4,0-1.8l11.8-5.6c0.3-0.1,0.6-0.1,0.8,0l12.3,5.6c0.8,0.4,0.8,1.5,0,1.8
	l-12.3,5.6C18.1,22,17.7,22,17.5,21.9z"/>
<path class="st2" d="M15.5,7L1,14.5l14.5,7l15-7L15.5,7z"/>
<path class="st0" d="M17.5,15.8L5.7,10.1C5,9.8,5,8.7,5.7,8.3l11.8-5.6c0.3-0.1,0.6-0.1,0.8,0l12.3,5.6c0.8,0.4,0.8,1.5,0,1.8
	l-12.3,5.6C18.1,15.9,17.7,15.9,17.5,15.8z"/>
<path class="st1" d="M15.5,1L1,8.5l14.5,7l15-7L15.5,1z"/>
</svg>
