<svg width="40" height="41" viewBox="0 0 40 41" fill="none" xmlns="http://www.w3.org/2000/svg">
<path d="M19.4419 29.8596C19.5134 29.4176 19.1867 29.1489 18.7502 28.9498C18.2048 28.7011 18.0654 28.0383 18.5264 27.6551C20.0883 26.3569 20.3934 25.8716 19.9356 23.3281L10.1617 34.2969C11.4343 36.413 15.0638 37.9412 17.3671 38.8816C18.156 39.2036 18.0198 39.8896 17.1707 39.9602L5.31291 40.9461C4.91877 40.9789 4.54235 40.7763 4.35262 40.4292L1.40302 35.034C1.17 34.6078 1.27698 34.0758 1.65663 33.7728L15.8101 22.476C16.0936 22.2497 16.2324 21.8875 16.1726 21.5297L15.7861 19.2161C15.7111 18.7668 15.9491 18.3236 16.3652 18.1381L23.0087 15.1755C23.406 14.9678 23.8109 14.7916 24.2095 14.64C25.1077 14.2986 25.9743 14.0825 26.6526 13.9133C30.1137 13.1008 36.3029 13.4259 38.2574 18.7884C40.2119 24.1509 37.8502 29.1479 36.4251 30.9761C35.5608 32.1832 34.1387 34.9425 34.3273 37.5385C34.3768 38.2195 33.8872 38.8977 33.2043 38.8977H27.1834C26.5788 38.8977 26.1125 38.3654 26.1921 37.7661L26.4769 35.6209C26.5647 34.9593 25.9922 34.399 25.3327 34.501L22.034 35.0112C21.327 35.1205 20.747 34.47 20.7798 33.7554C20.8054 33.1973 20.7368 32.7514 20.5858 32.4486C20.4363 32.1488 20.2519 31.6111 20.4633 31.3512C20.6979 31.0627 20.4437 30.6387 20.0786 30.7098L20.0396 30.7174C19.6401 30.7952 19.3769 30.2614 19.4419 29.8596Z" fill="#EE5356"/>
<path d="M26.0419 37.8977L26.4769 34.6209C26.5647 33.9593 25.9922 33.399 25.3327 33.501L21.6657 34.0681C21.1336 34.1504 20.7116 33.644 20.5984 33.1176C20.5073 32.6945 20.2768 32.3968 19.9932 32.1931C19.6631 31.9558 19.5056 31.2765 19.8441 31.0513V31.0513C20.129 30.8619 20.0709 30.4276 19.7463 30.3197L19.5219 30.245C19.1504 30.1215 19.078 29.6593 19.2182 29.2938C19.4461 28.6996 18.7373 28.5227 17.9254 28.4165C17.1736 28.3181 16.9877 27.5683 17.5831 27.0988C19.3041 25.742 20.3762 24.7764 19.9356 22.3281M34.5927 37.8977C33.6155 34.9726 35.4071 31.3978 36.4251 29.9761C37.8502 28.1479 40.2119 23.1509 38.2574 17.7884C36.3029 12.4259 30.1137 12.1008 26.6526 12.9133C25.9743 13.0825 25.1077 13.2986 24.2095 13.64M24.2095 13.64C21.9093 14.5144 19.4026 16.2103 19.3253 20.0426C19.3229 20.1627 19.3454 20.2835 19.3866 20.3963C19.6554 21.1325 19.8349 21.769 19.9356 22.3281M24.2095 13.64L16.3652 17.1381C15.9491 17.3236 15.7111 17.7668 15.7861 18.2161L16.1726 20.5297C16.2324 20.8875 16.0936 21.2497 15.8101 21.476L1.65663 32.7728C1.27698 33.0758 1.17 33.6078 1.40302 34.034L4.66466 40M19.3234 38.7812C18.7125 38.1719 11.994 36.3438 10.1617 33.2969M10.1617 33.2969L8.32933 35.125M10.1617 33.2969L19.9356 22.3281M3.44311 12.9133L5.82882 15.5077C6.12898 15.8342 6.66929 15.7187 6.80981 15.2981V15.2981C6.94684 14.888 7.46731 14.765 7.77343 15.0704L10.1617 17.4531M9.55088 5.26562L10.3732 8.13699C10.5659 8.81015 11.373 9.08186 11.9336 8.66235L12.0543 8.57203C12.615 8.15252 13.422 8.42423 13.6148 9.09738L14.4371 11.9688M19.9356 1L19.0364 4.58404C18.8897 5.16869 19.4191 5.69877 20.0039 5.55289V5.55289C20.554 5.4157 21.0678 5.87948 20.9874 6.44063L20.5449 9.53125M30.3173 1L28.7152 3.79733C28.3406 4.45121 28.8127 5.26562 29.5663 5.26562V5.26562C30.236 5.26562 30.7088 5.92202 30.4965 6.55726L29.7065 8.92188" stroke="#333333" stroke-linecap="round" stroke-linejoin="round"/>
</svg>
