<svg width="50" height="31" viewBox="0 0 50 31" fill="none" xmlns="http://www.w3.org/2000/svg">
<path d="M12.1369 12.0948C13.8055 10.3069 15.7164 8.25743 17.1985 6.66388C18.7688 4.97548 20.9839 4 23.2897 4H38.3654C38.7244 4 39.0154 4.29101 39.0154 4.65V11.1077C39.0154 12.208 39.9074 13.1 41.0077 13.1C42.108 13.1 43 13.992 43 15.0923V24.8769C43 27.7063 40.7063 30 37.8769 30H33.4038C33.0449 30 32.7538 29.709 32.7538 29.35C32.7538 28.273 31.8808 27.4 30.8038 27.4H8.40918C7.97136 27.4 7.56295 27.1796 7.32259 26.8137C6.7548 25.9492 7.37491 24.8 8.40918 24.8H8.48965C8.72328 24.8 8.95286 24.7391 9.15575 24.6232L9.20329 24.5961C9.68641 24.3203 9.98462 23.8066 9.98462 23.2503V17.5553C9.98462 15.5278 10.7536 13.5771 12.1369 12.0948Z" fill="#EE5356"/>
<path d="M19.5414 23.5957H2.14893C1.59664 23.5957 1.14893 24.0434 1.14893 24.5957V28.8723C1.14893 29.4246 1.59664 29.8723 2.14893 29.8723H40.3191C40.8714 29.8723 41.3191 29.4246 41.3191 28.8723V24.5957C41.3191 24.0434 40.8714 23.5957 40.3191 23.5957H32.9692C32.4169 23.5957 31.9692 24.0434 31.9692 24.5957V25.734C31.9692 26.2863 31.5215 26.734 30.9692 26.734H21.5414C20.9892 26.734 20.5414 26.2863 20.5414 25.734V24.5957C20.5414 24.0434 20.0937 23.5957 19.5414 23.5957Z" stroke="#333333"/>
<path d="M37.5531 24.8511V10.1596C37.5531 9.60729 38.0008 9.15957 38.5531 9.15957H40.6914H42.5744H47.851C48.4033 9.15957 48.851 9.60729 48.851 10.1596V29.5C48.851 30.0523 48.4033 30.5 47.851 30.5H38.5531C38.0008 30.5 37.5531 30.0523 37.5531 29.5V24.8511Z" fill="white"/>
<path d="M5.54248 22.9681V2C5.54248 1.44772 5.9902 1 6.54248 1H41.5744C42.1267 1 42.5744 1.44772 42.5744 2V9.15957M42.5744 9.15957H47.851C48.4033 9.15957 48.851 9.60729 48.851 10.1596V29.5C48.851 30.0523 48.4033 30.5 47.851 30.5H38.5531C38.0008 30.5 37.5531 30.0523 37.5531 29.5V24.8511V10.1596C37.5531 9.60729 38.0008 9.15957 38.5531 9.15957H40.6914M42.5744 9.15957H40.6914M7.42546 22.9681V3.88298C7.42546 3.33069 7.87317 2.88298 8.42546 2.88298H39.6914C40.2437 2.88298 40.6914 3.33069 40.6914 3.88298V9.15957M41.3191 28.617H45.085M23.7446 6.02128L12.4467 17.3191M11.8191 21.0851L27.5106 5.39362M40.4361 26.734H45.968C46.5203 26.734 46.968 26.2863 46.968 25.734V12.0426C46.968 11.4903 46.5203 11.0426 45.968 11.0426H40.4361C39.8838 11.0426 39.4361 11.4903 39.4361 12.0426V25.734C39.4361 26.2863 39.8838 26.734 40.4361 26.734Z" stroke="#333333" stroke-linecap="round" stroke-linejoin="round"/>
</svg>
