<?xml version="1.0" encoding="utf-8"?>
<!-- Generator: Adobe Illustrator 24.2.1, SVG Export Plug-In . SVG Version: 6.00 Build 0)  -->
<svg version="1.1" id="레이어_1" xmlns="http://www.w3.org/2000/svg" xmlns:xlink="http://www.w3.org/1999/xlink" x="0px"
	 y="0px" viewBox="0 0 37 29" style="enable-background:new 0 0 37 29;" xml:space="preserve">
<style type="text/css">
	.st0{fill:#FD0031;}
	.st1{fill:none;stroke:#333333;stroke-linecap:round;stroke-linejoin:round;}
	.st2{fill:none;stroke:#333333;}
</style>
<path class="st0" d="M13.2,20.4V18v-0.1c0-0.6,0.4-1,1-1H34c0.6,0,1,0.4,1,1v0.8c0,0.3,0.2,0.6,0.4,0.8l0.8,0.6
	c0.3,0.2,0.4,0.5,0.4,0.8v7.1c0,0.6-0.4,1-1,1H11.3c-0.6,0-1-0.4-1-1v-5.5c0-0.6,0.4-1,1-1h0.9C12.7,21.4,13.2,21,13.2,20.4z"/>
<path class="st0" d="M15.5,13.4c-3.2-1.8-1.3-4.2,0-5.2c3.2-2.3,4.8,1,5.2,2.9C20.2,12.7,18.7,15.3,15.5,13.4z"/>
<path class="st1" d="M1,28.5h3.5 M8,28.5H4.5 M4.5,28.5V7c-0.2-2.2,0.8-6.5,6-6.5S17,4.8,17,7 M17,7c-2,0-3.5,1.4-3.5,5H16 M17,7
	c2.8,0,3.3,3.3,3.5,5H18 M16,12c0,0.5,0.2,1.5,1,1.5s1-1,1-1.5 M16,12h2"/>
<path class="st2" d="M12,21.5h-1c-0.6,0-1,0.4-1,1v5c0,0.6,0.4,1,1,1h1.5c0.6,0,1-0.4,1-1l0,0 M12,21.5h0.5c0.6,0,1,0.4,1,1V24
	 M12,21.5V18c0-0.6,0.4-1,1-1h8.5c1.2,0,1.7,1,1.8,1.5 M34.5,21.5V18c0-0.6-0.4-1-1-1H25c-1.2,0-1.7,1-1.8,1.5 M34.5,21.5H34
	c-0.6,0-1,0.4-1,1V24 M34.5,21.5h1c0.6,0,1,0.4,1,1v5c0,0.6-0.4,1-1,1H34c-0.6,0-1-0.4-1-1l0,0 M13.5,27.5H33 M13.5,27.5V24
	 M33,27.5V24 M33,24h-9.8 M13.5,24h9.8 M23.3,24c0-2.2,0-3.6,0-5.5"/>
</svg>
