<svg width="37" height="29" viewBox="0 0 37 29" fill="none" xmlns="http://www.w3.org/2000/svg">
<path d="M13.1678 20.4486V18.007V17.8599C13.1678 17.3076 13.6155 16.8599 14.1678 16.8599H33.9642C34.5165 16.8599 34.9642 17.3076 34.9642 17.8599V18.619C34.9642 18.9534 35.1313 19.2656 35.4095 19.4511L36.2397 20.0045C36.5179 20.19 36.685 20.5022 36.685 20.8366V27.9053C36.685 28.4576 36.2373 28.9053 35.685 28.9053H11.2998C10.7475 28.9053 10.2998 28.4576 10.2998 27.9053V22.4486C10.2998 21.8963 10.7475 21.4486 11.2998 21.4486H12.1678C12.72 21.4486 13.1678 21.0009 13.1678 20.4486Z" fill="#EE5356"/>
<path d="M15.4621 13.4183C12.2499 11.5828 14.1237 9.21192 15.4621 8.25593C18.6742 5.96157 20.242 9.21192 20.6244 11.1239C20.242 12.6535 18.6742 15.2537 15.4621 13.4183Z" fill="#EE5356"/>
<path d="M1 28.5H4.5M8 28.5H4.5M4.5 28.5V7C4.33333 4.83333 5.3 0.5 10.5 0.5C15.7 0.5 17 4.83333 17 7M17 7C15 7 13.5 8.4 13.5 12H16M17 7C19.8 7 20.3333 10.3333 20.5 12H18M16 12C16 12.5 16.2 13.5 17 13.5C17.8 13.5 18 12.5 18 12M16 12H18" stroke="#333333" stroke-linecap="round" stroke-linejoin="round"/>
<path d="M12 21.5H11C10.4477 21.5 10 21.9477 10 22.5V27.5C10 28.0523 10.4477 28.5 11 28.5H12.5C13.0523 28.5 13.5 28.0523 13.5 27.5V27.5M12 21.5H12.5C13.0523 21.5 13.5 21.9477 13.5 22.5V24M12 21.5V18C12 17.4477 12.4477 17 13 17H21.5C22.7 17 23.1667 18 23.25 18.5M34.5 21.5V18C34.5 17.4477 34.0523 17 33.5 17H25C23.8 17 23.3333 18 23.25 18.5M34.5 21.5H34C33.4477 21.5 33 21.9477 33 22.5V24M34.5 21.5H35.5C36.0523 21.5 36.5 21.9477 36.5 22.5V27.5C36.5 28.0523 36.0523 28.5 35.5 28.5H34C33.4477 28.5 33 28.0523 33 27.5V27.5M13.5 27.5H33M13.5 27.5V24M33 27.5V24M33 24H23.25M13.5 24H23.25M23.25 24C23.25 21.8071 23.25 20.3871 23.25 18.5" stroke="#333333"/>
</svg>
