<?xml version="1.0" encoding="utf-8"?>
<!-- Generator: Adobe Illustrator 24.2.1, SVG Export Plug-In . SVG Version: 6.00 Build 0)  -->
<svg version="1.1" id="레이어_1" xmlns="http://www.w3.org/2000/svg" xmlns:xlink="http://www.w3.org/1999/xlink" x="0px"
	 y="0px" viewBox="0 0 29 29" style="enable-background:new 0 0 29 29;" xml:space="preserve">
<style type="text/css">
	.st0{fill:#FD0031;}
	.st1{fill:none;stroke:#333333;stroke-width:0.7;stroke-linecap:round;stroke-linejoin:round;}
	.st2{fill:none;stroke:#333333;stroke-width:0.7;}
</style>
<path class="st0" d="M3.8,17.1c6-3.3,5.2-9.9,4-13.2C7.7,3.8,7.6,3.6,7.5,3.5C6,2.5,3.7,1.6,2.1,1.1C1.4,1,0.8,1.4,0.8,2.1
	c0,7.4,0.1,19.5,0.4,21.9c0,0.3,0.3,0.4,0.6,0.3c0.1,0,0.3,0,0.4,0c0.8-0.1,1.8-1,1.6-1.8l-0.7-4.2C3.2,17.7,3.4,17.3,3.8,17.1z"/>
<path class="st0" d="M25.2,16.9C20,13.7,20.7,7.2,21.7,4c0.1-0.2,0.2-0.3,0.3-0.4c1.2-0.9,3.2-1.7,4.6-2.2c0.6-0.2,1.3,0.3,1.3,0.9
	c0,7.2-0.1,18.8-0.4,21.2c0,0.3,0,0.4-0.3,0.4c-0.8-0.1-2.1-1.2-2-2l0.6-4C25.8,17.5,25.6,17.1,25.2,16.9z"/>
<path class="st0" d="M1,27.4v-1.9C1,25.3,1.3,25,1.6,25H8c0.6,0,1,0.4,1,1v1.4c0,0.6-0.4,1-1,1H2C1.4,28.4,1,28,1,27.4z"/>
<path class="st0" d="M18,26v1.9c0,0.3-0.3,0.6-0.6,0.6H11c-0.6,0-1-0.4-1-1V26c0-0.6,0.4-1,1-1h6C17.6,25,18,25.4,18,26z"/>
<path class="st0" d="M26.6,27.3v-1.9c0-0.3-0.3-0.6-0.6-0.6h-6.5c-0.6,0-1,0.4-1,1v1.4c0,0.6,0.4,1,1,1h6
	C26.2,28.3,26.6,27.9,26.6,27.3z"/>
<path class="st1" d="M1,2v26h27V2"/>
<path class="st2" d="M1,25v2c0,0.6,0.4,1,1,1h7c0.6,0,1-0.4,1-1v-2c0-0.6-0.4-1-1-1H2C1.4,24,1,24.4,1,25z"/>
<path class="st2" d="M10,25v2c0,0.6,0.4,1,1,1h7c0.6,0,1-0.4,1-1v-2c0-0.6-0.4-1-1-1h-7C10.4,24,10,24.4,10,25z"/>
<path class="st2" d="M19,25v2c0,0.6,0.4,1,1,1h7c0.6,0,1-0.4,1-1v-2c0-0.6-0.4-1-1-1h-7C19.4,24,19,24.4,19,25z"/>
<path class="st2" d="M1,2C0.8,3,3.1,5,13.7,5C27,5,27.7,3,28,2"/>
<path class="st1" d="M8,5c0.8,2.3,1,8.4-5,12 M3,17H1 M3,17l1.5,7 M5.5,6.5C6,8.2,6.2,11.4,3,15 M3,6c0.7,1.2,1.1,3.8-0.5,7"/>
<path class="st1" d="M20.5,5c-0.8,2.3-1.1,8.4,4.9,12 M25.4,17h2 M25.4,17L24,24 M22.9,6.5c-0.5,1.7-0.7,4.9,2.5,8.5 M25.4,6
	c-0.7,1.2-1.1,3.8,0.5,7"/>
<path class="st1" d="M4,21h20.6 M6.2,2c2.5,1.2,9.5,3,17.2,0"/>
</svg>
