<?xml version="1.0" encoding="utf-8"?>
<!-- Generator: Adobe Illustrator 24.2.1, SVG Export Plug-In . SVG Version: 6.00 Build 0)  -->
<svg version="1.1" id="레이어_1" xmlns="http://www.w3.org/2000/svg" xmlns:xlink="http://www.w3.org/1999/xlink" x="0px"
	 y="0px" viewBox="0 0 39 38" style="enable-background:new 0 0 39 38;" xml:space="preserve">
<style type="text/css">
	.st0{fill:#FD0031;}
	.st1{fill:none;stroke:#333333;stroke-linecap:round;stroke-linejoin:round;}
</style>
<path class="st0" d="M13.6,7.2C15,1,20.8,1.1,23,3.7c1.1,1.3,0.5,3.2,0.6,4.9c0.2,2.1,1.4,3,2.2,3.2c0.3,0.1,0.5,0,0.7-0.2l2.4-1.1
	c1.7-0.8,3.6,0.5,3.6,2.3c0,0.4,0.1,0.9,0.3,1.3l1.3,2.3c0.4,0.7,1,1.3,1.7,1.8l0.3,0.2c1.3,0.9,2.1,2.4,2.1,4
	c0,1.9-1.1,3.7-2.9,4.4L35,27c-0.5,0.2-1,0.5-1.4,0.9l-3.6,3.2c-0.6,0.5-1,1.2-1.2,1.9l-0.3,0.9c-0.3,1.2-1.4,2-2.6,2h-1.1
	c-0.5,0-1-0.3-1.2-0.9c-0.2-0.5-0.7-0.9-1.2-0.9h-5.1c-0.5,0-1,0.3-1.2,0.9c-0.2,0.5-0.7,0.9-1.2,0.9h-0.3c-1.1,0-2.1-1.1-2.3-2.2
	c-0.2-0.9-0.4-1.8-0.7-2.5c-0.2-0.7-0.7-1.2-1.3-1.6C4.8,25.5,5.6,20.3,7.2,17c0.6-1.3,1.7-2.2,2.7-3.2C12.3,11.4,13.4,8.8,13.6,7.2
	z"/>
<path class="st1" d="M11.5,12c-2,0.6-5.3,3.3-5.9,9 M11.5,12c1.5,1.5,2.3,1.6,3,2.2 M11.5,12C10,11,9,5.3,13,2.5c1.7-1.3,6-3,9.8,1
	c0.9,1.2,2.4,4.3,0.8,7.5 M32,15c1.5,1,2.5,4,2.5,4.5c0,0.3,0.8,0.7,1.6,1c0.8,0.3,1.4,1.1,1.4,1.9v1.3c0,0.8-0.4,1.5-1.1,1.8
	L34,26.7c-0.4,0.2-0.6,0.5-0.9,0.8c-1.2,1.8-2.7,3-3.7,3.6c-0.6,0.3-1.1,0.8-1.2,1.4l-0.8,2.6c-0.3,0.8-1,1.4-1.9,1.4h-0.2
	c-0.8,0-1.5-0.5-1.8-1.2l-0.1-0.2c-0.4-0.9-1.3-1.4-2.3-1.3c-1,0-2,0-3,0c-1-0.1-1.8,0.5-2.2,1.4l0,0.1c-0.3,0.8-1,1.4-1.9,1.4h-0.4
	c-1,0-1.8-0.7-2-1.6l-0.5-2.3c-0.1-0.7-0.6-1.2-1.2-1.5c-4-2.2-4.7-6.5-4.5-8.5c0-0.5,0-1,0.1-1.5 M32,15c-0.7,1.3-2.6,3.7-5,2.5
	c-2.4-1.2-2.3-4.5-2-6 M32,15c0.3-1.7,0.7-5.1-0.5-5.5c-1.2-0.4-4.8,1.2-6.5,2 M23.5,11c0.3,0,1.1,0.1,1.5,0.5 M23.5,11
	c-0.7,1.1-2.4,3.1-4,3 M29,20c0,0.5,0.2,1.5,1,1.5s1-1,1-1.5 M5.6,21c-1.5-0.1-4-0.7-3.8-1.9c0.1-0.4,0.5-0.7,0.9-0.7
	c0.9,0,1.8,0.6,1,3.4c-0.1,0.2-0.1,0.3-0.2,0.5C2.9,22.7,2,23.4,1,23 M12.5,15c0.5-0.3,1.1-0.6,2-0.8 M22.5,15c-1-0.5-2-0.9-3-1
	 M14.5,14.2c1.3-0.4,3.1-0.6,5-0.2 M14.5,5l1.2,4.2c0.2,0.6,1.1,0.5,1.2-0.1l0,0c0.1-0.7,1.1-0.7,1.2,0l0,0c0.1,0.7,1,0.7,1.2,0
	L20,5 M13.5,7h3.9H21"/>
</svg>
