<?xml version="1.0" encoding="utf-8"?>
<!-- Generator: Adobe Illustrator 24.2.1, SVG Export Plug-In . SVG Version: 6.00 Build 0)  -->
<svg version="1.1" id="레이어_1" xmlns="http://www.w3.org/2000/svg" xmlns:xlink="http://www.w3.org/1999/xlink" x="0px"
	 y="0px" viewBox="0 0 40 41" style="enable-background:new 0 0 40 41;" xml:space="preserve">
<style type="text/css">
	.st0{fill:#FD0031;}
	.st1{fill:none;stroke:#333333;stroke-linecap:round;stroke-linejoin:round;}
</style>
<path class="st0" d="M19.4,29.9c0.1-0.4-0.3-0.7-0.7-0.9c-0.5-0.2-0.7-0.9-0.2-1.3c1.6-1.3,1.9-1.8,1.4-4.3l-9.8,11
	c1.3,2.1,4.9,3.6,7.2,4.6c0.8,0.3,0.7,1-0.2,1.1l-11.9,1c-0.4,0-0.8-0.2-1-0.5L1.4,35c-0.2-0.4-0.1-1,0.3-1.3l14.2-11.3
	c0.3-0.2,0.4-0.6,0.4-0.9l-0.4-2.3c-0.1-0.4,0.2-0.9,0.6-1.1l6.6-3c0.4-0.2,0.8-0.4,1.2-0.5c0.9-0.3,1.8-0.6,2.4-0.7
	c3.5-0.8,9.7-0.5,11.6,4.9c2,5.4-0.4,10.4-1.8,12.2c-0.9,1.2-2.3,4-2.1,6.6c0,0.7-0.4,1.4-1.1,1.4h-6c-0.6,0-1.1-0.5-1-1.1l0.3-2.1
	c0.1-0.7-0.5-1.2-1.1-1.1L22,35c-0.7,0.1-1.3-0.5-1.3-1.3c0-0.6,0-1-0.2-1.3c-0.1-0.3-0.3-0.8-0.1-1.1c0.2-0.3,0-0.7-0.4-0.6l0,0
	C19.6,30.8,19.4,30.3,19.4,29.9z"/>
<path class="st1" d="M26,37.9l0.4-3.3c0.1-0.7-0.5-1.2-1.1-1.1l-3.7,0.6c-0.5,0.1-1-0.4-1.1-1c-0.1-0.4-0.3-0.7-0.6-0.9
	c-0.3-0.2-0.5-0.9-0.1-1.1l0,0c0.3-0.2,0.2-0.6-0.1-0.7l-0.2-0.1c-0.4-0.1-0.4-0.6-0.3-1c0.2-0.6-0.5-0.8-1.3-0.9
	c-0.8-0.1-0.9-0.8-0.3-1.3c1.7-1.4,2.8-2.3,2.4-4.8 M34.6,37.9c-1-2.9,0.8-6.5,1.8-7.9c1.4-1.8,3.8-6.8,1.8-12.2
	c-2-5.4-8.1-5.7-11.6-4.9c-0.7,0.2-1.5,0.4-2.4,0.7 M24.2,13.6c-2.3,0.9-4.8,2.6-4.9,6.4c0,0.1,0,0.2,0.1,0.4
	c0.3,0.7,0.4,1.4,0.5,1.9 M24.2,13.6l-7.8,3.5c-0.4,0.2-0.7,0.6-0.6,1.1l0.4,2.3c0.1,0.4-0.1,0.7-0.4,0.9L1.7,32.8
	c-0.4,0.3-0.5,0.8-0.3,1.3l3.3,6 M19.3,38.8c-0.6-0.6-7.3-2.4-9.2-5.5 M10.2,33.3l-1.8,1.8 M10.2,33.3l9.8-11 M3.4,12.9l2.4,2.6
	c0.3,0.3,0.8,0.2,1-0.2l0,0c0.1-0.4,0.7-0.5,1-0.2l2.4,2.4 M9.6,5.3l0.8,2.9c0.2,0.7,1,0.9,1.6,0.5l0.1-0.1c0.6-0.4,1.4-0.1,1.6,0.5
	l0.8,2.9 M19.9,1L19,4.6c-0.1,0.6,0.4,1.1,1,1l0,0c0.6-0.1,1.1,0.3,1,0.9l-0.4,3.1 M30.3,1l-1.6,2.8c-0.4,0.7,0.1,1.5,0.9,1.5l0,0
	c0.7,0,1.1,0.7,0.9,1.3l-0.8,2.4"/>
</svg>
