<?xml version="1.0" encoding="utf-8"?>
<!-- Generator: Adobe Illustrator 24.2.1, SVG Export Plug-In . SVG Version: 6.00 Build 0)  -->
<svg version="1.1" id="레이어_1" xmlns="http://www.w3.org/2000/svg" xmlns:xlink="http://www.w3.org/1999/xlink" x="0px"
	 y="0px" viewBox="0 0 29 29" style="enable-background:new 0 0 29 29;" xml:space="preserve">
<style type="text/css">
	.st0{fill:#FD0031;}
	.st1{fill:none;stroke:#333333;}
	.st2{fill:none;stroke:#333333;stroke-linecap:round;stroke-linejoin:round;}
</style>
<ellipse class="st0" cx="15.3" cy="14.7" rx="13.2" ry="13.8"/>
<circle class="st1" cx="14.5" cy="14.5" r="14"/>
<path class="st2" d="M8,2.5l-1,4 M7,6.5l-4.5,1 M7,6.5l4,4 M0.5,14L4,17 M4,17l5.5-1 M4,17l-1,5.5 M9.5,16l1.5-5.5 M9.5,16l4,4
	 M11,10.5L16.5,9 M16.5,9l1-5.5 M16.5,9l4,4 M17.5,3.5l-3-3 M17.5,3.5l4-1 M20.5,13L19,18.5 M20.5,13l5-1.5 M19,18.5L13.5,20
	 M19,18.5l3.5,3.5 M13.5,20L12,25 M25.5,11.5l1-4 M25.5,11.5L28,14 M22.5,22l4-1 M22.5,22l-1,4.5 M12,25l-5.5,1 M12,25l3,3.5"/>
</svg>
