<?xml version="1.0" encoding="utf-8"?>
<!-- Generator: Adobe Illustrator 24.2.1, SVG Export Plug-In . SVG Version: 6.00 Build 0)  -->
<svg version="1.1" id="레이어_1" xmlns="http://www.w3.org/2000/svg" xmlns:xlink="http://www.w3.org/1999/xlink" x="0px"
	 y="0px" viewBox="0 0 38 34" style="enable-background:new 0 0 38 34;" xml:space="preserve">
<style type="text/css">
	.st0{fill:#FD0031;}
	.st1{fill:none;stroke:#333333;}
	.st2{fill:#FFFFFF;stroke:#333333;}
	.st3{fill:none;stroke:#333333;stroke-linecap:round;stroke-linejoin:round;}
</style>
<path class="st0" d="M2.8,30.2l3.6-10.6c1.1-3.3,4.1-5.5,7.6-5.5h11.5c3.2,0,6.1,2,7.2,5.1l2.6,7.4c1,2.9-1.1,5.9-4.2,5.9
	c-1.5,0-2.9-0.7-3.7-2l0,0c-0.8-1.3-2.3-2-3.8-2H16c-1.5,0-2.9,0.8-3.8,2l-0.1,0.1c-0.8,1.2-2.2,1.9-3.6,1.9H4.3
	C3.1,32.5,2.3,31.3,2.8,30.2z"/>
<path class="st1" d="M23.8,13H12.5c-3.8,0-7.1,2.3-8.4,5.9l-2.4,6.5c-0.9,2.5,0.2,5.4,2.7,6.5L5,32.2c2.1,1,4.7,0.1,5.7-2
	c0.7-1.5,2.3-2.4,3.9-2.4h6c1.8,0,3.4,0.9,4.4,2.3c1.5,2.2,4.4,2.9,6.7,1.8c2.4-1.2,3.6-4,2.7-6.5l-2.2-6.4
	C31.1,15.5,27.7,13,23.8,13z"/>
<circle class="st2" cx="13.8" cy="27.8" r="2.3"/>
<circle class="st2" cx="21" cy="20" r="1.5"/>
<circle class="st2" cx="27" cy="20" r="1.5"/>
<path class="st3" d="M12,17c-1.5,0-1.1,1.4-1.1,1.9c-0.6,0-1.9,0-1.9,1.1s0.4,1.1,1.9,1.1c0,0.6-0.4,1.9,1.1,1.9s1.1-1.3,1.1-1.9
	c0.6,0,1.9,0.2,1.9-1.1s-1.3-1.1-1.9-1.1C13.1,18.4,13.5,17,12,17z"/>
<circle class="st2" cx="22.8" cy="27.8" r="2.3"/>
<path class="st3" d="M13.5,13c0-1.2,0.5-3,3.5-3h1.8 M23.5,13c0-2.4-2-3-3-3h-1.8 M18.8,10C19,8.7,18.6,6,15,6H8
	C7.2,6,5.5,5.5,5.5,3.5S7.2,1,8,1h10.5"/>
</svg>
