<svg width="39" height="38" viewBox="0 0 39 38" fill="none" xmlns="http://www.w3.org/2000/svg">
<path d="M13.5531 7.22601C15.0248 0.971414 20.7738 1.05913 22.9951 3.70484C24.0991 5.01982 23.4818 6.92783 23.6137 8.63975C23.7769 10.7589 25.0328 11.6561 25.7915 11.8084C26.042 11.8587 26.2891 11.7616 26.5217 11.6559L28.9142 10.5684C30.5849 9.80897 32.4816 11.0303 32.4816 12.8655C32.4816 13.3046 32.5962 13.7361 32.8141 14.1173L34.1479 16.4515C34.561 17.1743 35.1367 17.7911 35.8294 18.253L36.0794 18.4196C37.4152 19.3101 38.2176 20.8094 38.2176 22.4148C38.2176 24.3356 37.0729 26.0715 35.3074 26.8282L34.9954 26.9619C34.4702 27.187 33.9847 27.4953 33.5576 27.8749L29.9084 31.1187C29.3413 31.6228 28.9294 32.2779 28.7209 33.0075L28.457 33.9314C28.1231 35.1 27.055 35.9056 25.8397 35.9056H24.7847C24.2431 35.9056 23.7622 35.559 23.591 35.0452C23.4197 34.5314 22.9389 34.1848 22.3972 34.1848H17.328C16.7864 34.1848 16.3056 34.5314 16.1343 35.0452C15.963 35.559 15.4822 35.9056 14.9406 35.9056H14.6709C13.5566 35.9056 12.5779 34.7562 12.3627 33.6629C12.1948 32.8094 11.9165 31.9081 11.6481 31.164C11.4118 30.5087 10.9362 29.9743 10.3771 29.5588C4.84977 25.451 5.58592 20.2743 7.24861 17.0378C7.8931 15.7833 8.96672 14.8293 9.94274 13.8111C12.3013 11.3508 13.3935 8.82207 13.5531 7.22601Z" fill="#EE5356"/>
<path d="M11.5 12C9.49965 12.6155 6.1523 15.2561 5.57346 21.0079M11.5 12C13 13.5 13.8332 13.614 14.5 14.167M11.5 12C10 11.0079 9 5.30764 13 2.50764C14.6667 1.17431 18.95 -0.492362 22.75 3.50764C23.6667 4.67438 25.1 7.80788 23.5 11.0079M32 15.0079C33.5 16.0079 34.5 19.0079 34.5 19.5079C34.5 19.7616 35.3046 20.1628 36.1484 20.5074C36.9453 20.8329 37.5 21.5885 37.5 22.4494V23.7718C37.5 24.5294 37.072 25.2219 36.3944 25.5607L34.0416 26.7371C33.6884 26.9136 33.3996 27.1937 33.1853 27.5253C32.0105 29.3428 30.5178 30.4824 29.4426 31.0777C28.8731 31.3929 28.3887 31.8788 28.2017 32.5023L27.4276 35.0826C27.1738 35.9285 26.3951 36.5079 25.5119 36.5079H25.3333C24.5259 36.5079 23.7977 36.0224 23.4872 35.2771L23.3944 35.0545C23.0216 34.1597 22.0567 33.6584 21.0885 33.706C20.1118 33.754 19.0452 33.7201 18.1319 33.6593C17.1807 33.5959 16.283 34.1589 15.9815 35.0633L15.9558 35.1403C15.6836 35.957 14.9193 36.5079 14.0585 36.5079H13.6394C12.686 36.5079 11.8652 35.835 11.6782 34.9001L11.2087 32.5522C11.0781 31.8994 10.6221 31.3676 10.0406 31.0436C6.08253 28.8384 5.3449 24.5215 5.4998 22.5079C5.4998 21.9859 5.52533 21.4861 5.57346 21.0079M32 15.0079C31.3333 16.3412 29.4 18.7079 27 17.5079C24.6 16.3079 24.6667 13.0079 25 11.5079M32 15.0079C32.3333 13.3412 32.7 9.90788 31.5 9.50788C30.3 9.10788 26.6667 10.6745 25 11.5079M23.5 11.0079C23.8333 11.0079 24.6 11.1079 25 11.5079M23.5 11.0079C22.8333 12.0602 21.1 14.1251 19.5 13.9658M29 20.0079C29 20.5079 29.2 21.5079 30 21.5079C30.8 21.5079 31 20.5079 31 20.0079M5.57346 21.0079C4.09431 20.8621 1.55095 20.2828 1.7394 19.0694C1.80183 18.6674 2.20608 18.4066 2.61282 18.3986C3.50805 18.3811 4.41866 19.0417 3.58252 21.7509C3.5301 21.9208 3.45331 22.0854 3.3378 22.2206C2.91008 22.7209 2.04321 23.3556 1 23.0079M12.5 15.0079C12.9518 14.7258 13.6394 14.4097 14.5 14.167M22.5 15.0076C21.474 14.4835 20.4642 14.1528 19.5 13.9658M14.5 14.167C15.8305 13.7919 17.5746 13.5925 19.5 13.9658M14.5 5L15.6896 9.16349C15.8673 9.78554 16.7718 9.70748 16.8479 9.06504V9.06504C16.9294 8.37736 17.9249 8.35892 18.0202 9.04484V9.04484C18.1117 9.70377 19.0536 9.73176 19.1841 9.07942L20 5M13.5 7H17.3891H21" stroke="#333333" stroke-linecap="round" stroke-linejoin="round"/>
</svg>
