<svg width="33" height="29" viewBox="0 0 33 29" fill="none" xmlns="http://www.w3.org/2000/svg">
<path d="M15.5 13L1 20.5L15.5 27.5L30.5 20.5L15.5 13Z" fill="white" stroke="#333333" stroke-linecap="round" stroke-linejoin="round"/>
<path d="M15.5 7L1 14.5L15.5 21.5L30.5 14.5L15.5 7Z" fill="white" stroke="#333333" stroke-linecap="round" stroke-linejoin="round"/>
<path d="M15.5 1L1 8.5L15.5 15.5L30.5 8.5L15.5 1Z" fill="white" stroke="#333333" stroke-linecap="round" stroke-linejoin="round"/>
<g style="mix-blend-mode:darken">
<path d="M17.4749 27.9936L5.71148 22.3676C4.95342 22.0051 4.95342 20.9259 5.71148 20.5634L17.4749 14.9374C17.7426 14.8094 18.0533 14.8068 18.323 14.9305L30.5978 20.5564C31.3756 20.9129 31.3756 22.0181 30.5978 22.3746L18.323 28.0005C18.0533 28.1242 17.7426 28.1216 17.4749 27.9936Z" fill="#ED3939"/>
<path d="M17.4749 21.8749L5.71148 16.249C4.95342 15.8864 4.95342 14.8073 5.71148 14.4447L17.4749 8.81873C17.7426 8.69071 18.0533 8.68817 18.323 8.8118L30.5978 14.4378C31.3756 14.7943 31.3756 15.8994 30.5978 16.2559L18.323 21.8819C18.0533 22.0055 17.7426 22.003 17.4749 21.8749Z" fill="#ED3939"/>
<path d="M17.4749 15.7573L5.71148 10.1313C4.95342 9.76875 4.95342 8.68958 5.71148 8.32703L17.4749 2.70106C17.7426 2.57304 18.0533 2.5705 18.323 2.69413L30.5978 8.3201C31.3756 8.67659 31.3756 9.78174 30.5978 10.1382L18.323 15.7642C18.0533 15.8878 17.7426 15.8853 17.4749 15.7573Z" fill="#ED3939"/>
</g>
</svg>
