<?xml version="1.0" encoding="utf-8"?>
<!-- Generator: Adobe Illustrator 24.2.1, SVG Export Plug-In . SVG Version: 6.00 Build 0)  -->
<svg version="1.1" id="레이어_1" xmlns="http://www.w3.org/2000/svg" xmlns:xlink="http://www.w3.org/1999/xlink" x="0px"
	 y="0px" viewBox="0 0 33 29" style="enable-background:new 0 0 33 29;" xml:space="preserve">
<style type="text/css">
	.st0{fill:#FD0031;}
	.st1{fill:none;stroke:#333333;stroke-linecap:round;stroke-linejoin:round;}
</style>
<path class="st0" d="M7.1,3.5c4.7-3.3,8.9-0.2,10.5,1.7c4.7-3.7,8.5-3.1,9.9-2.3c5.6,2.8,5.2,9.7,3.5,11.6
	c-9,9.9-12.4,13.4-13.4,13.9C11.5,22.9,6.5,16.9,4.7,14.5C1.5,9.9,4.9,5.3,7.1,3.5z"/>
<path class="st1" d="M5,16l-1-1.6C2.3,12.2,0.2,6.9,5,2.9s9.7-0.7,11.5,1.5c1.7-2,6.2-5.1,11-1.5c4.8,3.6,3,9.2,1.5,11.5 M8.5,19.4
	l8,8l9.5-10 M31.5,15.9h-9l-1,3L19,9.4l-3,11l-2.7-6l-1.8,3.5H1"/>
</svg>
