<svg width="33" height="29" viewBox="0 0 33 29" fill="none" xmlns="http://www.w3.org/2000/svg">
<path d="M7.07919 3.51963C11.7376 0.269179 16.0079 3.32615 17.5607 5.26095C22.2191 1.54615 26.1011 2.16528 27.4598 2.93919C33.05 5.72529 32.7006 12.6233 30.9537 14.548C21.9973 24.4154 18.5312 27.898 17.5607 28.4785C11.5047 22.9063 6.49689 16.8697 4.74998 14.548C1.48907 9.90445 4.94408 5.26095 7.07919 3.51963Z" fill="#EE5356"/>
<path d="M5 16L4.00017 14.3711C2.3335 12.2044 0.20017 6.87089 5.00017 2.87089C9.80017 -1.12911 14.6668 2.20422 16.5002 4.37089C18.1668 2.37082 22.7 -0.729279 27.5 2.87089C32.3 6.47105 30.5 12.0378 29 14.3711M8.5 19.3711L16.5002 27.3711L26 17.3711M31.5 15.8711H22.5L21.5 18.8711L19 9.37109L16 20.3711L13.3125 14.3711L11.5 17.8711H1" stroke="#333333" stroke-linecap="round" stroke-linejoin="round"/>
</svg>
