<?xml version="1.0" encoding="utf-8"?>
<!-- Generator: Adobe Illustrator 24.2.1, SVG Export Plug-In . SVG Version: 6.00 Build 0)  -->
<svg version="1.1" id="레이어_1" xmlns="http://www.w3.org/2000/svg" xmlns:xlink="http://www.w3.org/1999/xlink" x="0px"
	 y="0px" viewBox="0 0 29 32" style="enable-background:new 0 0 29 32;" xml:space="preserve">
<style type="text/css">
	.st0{fill:#FD0031;}
	.st1{fill:none;stroke:#333333;stroke-linecap:round;stroke-linejoin:round;}
</style>
<path class="st0" d="M9.1,3.3l9.1-3c0.2-0.1,0.5-0.1,0.7,0l7.6,2.9c0.9,0.3,0.8,1.5,0,1.9L22,6.8c-0.4,0.1-0.6,0.5-0.6,0.9v0.6
	c0,0.6,0.4,1,1,1h3.2c0.6,0,1,0.4,1,1v0.3c0,0.6,0.4,1,1,1h0.3c0.6,0,1,0.4,1,1v1.9V29c0,0.6-0.4,1-1,1H19c-0.3,0-0.6,0.2-0.8,0.4
	l-0.6,0.8c-0.2,0.3-0.5,0.4-0.8,0.4h-6.5c-0.3,0-0.5-0.1-0.7-0.3l-1.1-1.1C8.3,30.1,8,30,7.8,30H4.6c-0.6,0-1-0.4-1-1V13.8
	c0-0.6,0.4-1,1-1h2.8c0.5,0,0.9-0.3,1-0.8l1.4-5.9c0.1-0.5-0.2-0.9-0.6-1.1C8.2,4.8,8.2,3.6,9.1,3.3z"/>
<path class="st1" d="M9,11H3v3 M9,11l6,3 M9,11c-0.5-0.2-0.7-1.2,0.5-4 M21,11h5.5v3 M21,11l-6,3 M21,11c0.3,0,0.7-0.8-0.5-4 M15,14
	v15 M15,29h-1.5c0-1.6-2-2-3-2H3V14 M15,29h1.5c0-0.7,0.2-2,3-2h7V14 M9.5,7L15,8.5 M9.5,7l-6-2l11-4L26,5 M20.5,7L15,8.5 M20.5,7
	L25,5.4 M15,8.5v3 M26,5H16 M26,5l-1,0.4 M25,5.4v2.1 M3,14H1v15.5h9.5L12,31h5.5l1.5-1.5h9.5V14h-2 M5.5,17H9 M11,17h1 M5.5,19.5H7
	 M8.5,19.5h4 M5.5,22c0,0,1.9,0,3.5,0 M10.5,22h2 M17,17h4 M22.5,17H24 M17,19.5h2 M20.5,19.5h4 M17,22c0,0,2.2,0,4,0 M22.5,22h2
	 M25,9v0.5"/>
</svg>
