<svg width="33" height="32" viewBox="0 0 33 32" fill="none" xmlns="http://www.w3.org/2000/svg">
<circle cx="17.5" cy="16.5" r="15" stroke="#333333"/>
<circle cx="30.5" cy="2.5" r="2" stroke="#333333"/>
<path d="M17.4998 1.5C17.3332 3 15.9998 6.2 11.9998 7C10.8332 7.33333 8.29985 7.5 7.49985 5.5M7.99985 11C8.16651 11.5 8.19985 12.3 10.9998 11.5C12.5909 11.0454 13.9998 13 13.4998 14.5C12.9939 16.0179 12 16.5 10.9998 16.5C9.66651 16.3333 7.09985 16.5 7.49985 18.5C7.4999 19.1667 8.1 20.3 10.5 19.5C11 19.3333 12 19.4 12 21M12 23.5C12.1667 24 12.0001 25 10 25C8.5 25 8.6 26.2 9 29M25 3.5L20.5 5C19.6667 5.33333 18.2 6.5 19 8.5C19.8 10.5 22 10.3333 23 10C23.5 9.83333 24.6 10 25 12C25.4 14 23.5 14.5 22.5 14.5C21.5 14.5 19.7 15.1 20.5 17.5C21.3 19.9 22.8333 20.1667 23.5 20C24.3333 19.5 26.7 19.3 27.5 22.5M31.5 12C30 12.1667 27.3 13.1 28.5 15.5C29.7 17.9 31 20.8333 31.5 22" stroke="#333333"/>
<path d="M4.49999 7C3.29999 7 2.99999 8.33333 2.99999 9C2.49999 8.83333 1 9 1 10.5C1 11.7649 2.83333 11.5 3.5 11.5H5.5C6.16667 11.5 8 11.7 8 10.5C8 9.3 6.99999 8.83333 6.24999 9C6.16665 8.33333 5.69999 7 4.49999 7Z" fill="white" stroke="#333333" stroke-linecap="round" stroke-linejoin="round"/>
<path d="M14.5 19C13.3 19 13 20.3333 13 21C12.5 20.8333 11 21 11 22.5C11 23.7649 12.8333 23.5 13.5 23.5H15.5C16.1667 23.5 18 23.7 18 22.5C18 21.3 17 20.8333 16.25 21C16.1667 20.3333 15.7 19 14.5 19Z" fill="white" stroke="#333333" stroke-linecap="round" stroke-linejoin="round"/>
<path d="M28.5 22C27.3 22 27 23.3333 27 24C26.5 23.8333 25 24 25 25.5C25 26.7649 25.8333 26.5 26.5 26.5H30.5C31.1667 26.5 32 26.7 32 25.5C32 24.3 31 23.8333 30.25 24C30.1667 23.3333 29.7 22 28.5 22Z" fill="white" stroke="#333333" stroke-linecap="round" stroke-linejoin="round"/>
</svg>
