<svg width="29" height="32" viewBox="0 0 29 32" fill="none" xmlns="http://www.w3.org/2000/svg">
<path d="M9 11H3V14M9 11L15 14M9 11C8.5 10.8333 8.3 9.8 9.5 7M21 11H26.5V14M21 11L15 14M21 11C21.3333 11 21.7 10.2 20.5 7M15 14V29M15 29H13.5C13.5 27.4 11.5 27 10.5 27H3V14M15 29H16.5C16.5 28.3333 16.7 27 19.5 27H26.5V14M9.5 7L15 8.5M9.5 7L3.5 5L14.5 1L26 5M20.5 7L15 8.5M20.5 7L25 5.36364M15 8.5V11.5M26 5H16M26 5L25 5.36364M25 5.36364V7.5M3 14H1V29.5H10.5L12 31H17.5L19 29.5H28.5V14H26.5M5.5 17H9M11 17H12M5.5 19.5H7M8.5 19.5H12.5M5.5 22C5.5 22 7.4379 22 9 22M10.5 22H12.5M17 17H21M22.5 17H24M17 19.5H19M20.5 19.5H24.5M17 22C17 22 19.2426 22 21 22M22.5 22H24.5M25 9V9.5" stroke="#333333" stroke-linecap="round" stroke-linejoin="round"/>
</svg>
