<svg width="29" height="29" viewBox="0 0 29 29" fill="none" xmlns="http://www.w3.org/2000/svg">
<circle cx="14.5" cy="14.5" r="14" stroke="#333333"/>
<path d="M8 2.5L7 6.5M7 6.5L2.5 7.5M7 6.5L11 10.5M0.5 14L4 17M4 17L9.5 16M4 17L3 22.5M9.5 16L11 10.5M9.5 16L13.5 20M11 10.5L16.5 9M16.5 9L17.5 3.5M16.5 9L20.5 13M17.5 3.5L14.5 0.5M17.5 3.5L21.5 2.5M20.5 13L19 18.5M20.5 13L25.5 11.5M19 18.5L13.5 20M19 18.5L22.5 22M13.5 20L12 25M25.5 11.5L26.5 7.5M25.5 11.5L28 14M22.5 22L26.5 21M22.5 22L21.5 26.5M12 25L6.5 26M12 25L15 28.5" stroke="#333333" stroke-linecap="round" stroke-linejoin="round"/>
</svg>
