<svg id="Layer_1" data-name="Layer 1" xmlns="http://www.w3.org/2000/svg" viewBox="0 0 792 612"><defs><style>.cls-1{fill:#e6001f;}</style></defs><path class="cls-1" d="M279.63,72h0V237.78q0,45.86,25,73,25,27.39,66.67,27.38a162.55,162.55,0,0,0,24.14-2.33v-.06c4.61-1.06,9.63-2.32,15.19-3.84V251.14a29.77,29.77,0,0,1-42.69.36q-9.1-7.53-9.12-29s0-142.59,0-150.49h0v-12c-.94-12.47-9.31-22.27-19.59-22.41v0H256.18v0a29.64,29.64,0,0,1,14.38,8Q279.08,52.72,279.63,72Z"/><path class="cls-1" d="M163.52,336.81V256.25a32.6,32.6,0,1,1,17.22-28.73,1.1,1.1,0,0,1,0,.18l0,110.32h80.59V226.63c-.25-61.11-51-110.55-113.54-110.56h0c-62.71,0-113.54,49.7-113.54,111s50.85,111,113.56,111A115,115,0,0,0,163.52,336.81Z"/><path class="cls-1" d="M650,117.67c-59.55,0-107.81,49.4-107.81,110.32a114.84,114.84,0,0,0,1.21,15.27h78.26A31.66,31.66,0,1,1,649.52,260l-.17,0-120.62,0a29.61,29.61,0,0,1-19-8.71q-9.11-7.53-9.13-29l0-44.17h33.92a119.65,119.65,0,0,1,55.26-60.57H500.66c0-7.15,0-41.28,0-45.53h0q.52-19.33,9.07-26.42a29.61,29.61,0,0,1,14.37-8H441.08C430.8,37.7,422.43,47.5,421.49,60V70.25h0l-.07,167.33q0,45.84,25,73,25,27.39,66.72,27.38l26.06,0a65.27,65.27,0,0,1-13.06,14.74H409.33c-1.08,0-11.61,1.59-12.38,1.86h0l-.09,0a1.32,1.32,0,0,0-.3.09,88.88,88.88,0,0,0-71.21,86.88c0,.05,0,.11,0,.16h0v49.8h0v.08h0v0a8.73,8.73,0,1,1-17.46,0v0h0V439.65a88.82,88.82,0,0,0-177.61.42l0,70.49h80V440.71h-.08v-.08h.08v0a8.73,8.73,0,0,1,17.46,0v0h0l.06,53.61a88.83,88.83,0,0,0,177.58-3.67V437.89c0-.11,0-.23,0-.34a4.92,4.92,0,0,1,4.7-4.89h35.31a115.8,115.8,0,0,0-5.2,33.59v0c0,62.71,49.7,113.54,111,113.54s111-50.84,111-113.56A114.72,114.72,0,0,0,661,450.53H580.41a32.59,32.59,0,1,1-28.72-17.23l.17,0,110.33,0V352.59l-50,0a94.31,94.31,0,0,0,8.42-14.16l29.17,0v-.07h.4v0c59.47-.1,107.62-49.44,107.63-110.28v0C757.77,167.05,709.5,117.67,650,117.67Z"/></svg>