<svg id="Capa_1" data-name="Capa 1" xmlns="http://www.w3.org/2000/svg" viewBox="0 0 120 120"><defs><style>.cls-1,.cls-2{fill:none;stroke:#666;}.cls-1{stroke-miterlimit:10;stroke-width:6px;}.cls-2{stroke-linecap:round;stroke-linejoin:round;stroke-width:5px;}</style></defs><path class="cls-1" d="M106.09,21.69a27.34,27.34,0,0,0-20.8-9.36c-11.37,0-18.57,6.79-22.6,12.49A43.11,43.11,0,0,0,60,29.17a43.11,43.11,0,0,0-2.69-4.35c-4-5.7-11.23-12.49-22.6-12.49a27.34,27.34,0,0,0-20.8,9.36A32.78,32.78,0,0,0,6,43.42c0,9,3.51,17.33,11,26.29,6.73,8,16.41,16.25,27.62,25.8,4.17,3.55,8.49,7.24,13.09,11.26l.14.12a3.16,3.16,0,0,0,4.16,0l.14-.12c4.6-4,8.92-7.7,13.09-11.26,11.28-9.51,21-17.8,27.69-25.8,7.52-9,11-17.31,11-26.29A32.8,32.8,0,0,0,106.09,21.69Z"/><polyline class="cls-2" points="77.64 84.5 60 39.5 42.36 84.5"/><line class="cls-2" x1="40.95" y1="66.39" x2="79.05" y2="66.39"/></svg>