<svg id="레이어_1" data-name="레이어 1" xmlns="http://www.w3.org/2000/svg" viewBox="0 0 100 100"><defs><style>.cls-1,.cls-2{fill:none;stroke:#666;stroke-linecap:round;stroke-linejoin:round;}.cls-1{stroke-width:8px;}.cls-2{stroke-width:3px;}</style></defs><line class="cls-1" x1="28.54" y1="78.74" x2="51.39" y2="21.09"/><line class="cls-1" x1="74.39" y1="78.74" x2="51.54" y2="21.09"/><line class="cls-1" x1="27.5" y1="47.34" x2="75.44" y2="47.34"/><line class="cls-1" x1="27.5" y1="60.61" x2="75.44" y2="60.61"/><path class="cls-2" d="M19.31,84.66a46.74,46.74,0,0,0,50.3,7.79A46.76,46.76,0,0,0,96.36,51.5a46.34,46.34,0,0,0-11-30.8"/><path class="cls-2" d="M14.54,79.36A46.77,46.77,0,0,1,8.39,28.83,46.81,46.81,0,0,1,50.2,3.43a46.38,46.38,0,0,1,30.42,12"/><line class="cls-2" x1="80.62" y1="15.46" x2="80.84" y2="8.48"/><line class="cls-2" x1="73.28" y1="16.68" x2="80.22" y2="15.86"/><line class="cls-2" x1="18.66" y1="84.68" x2="18.66" y2="91.66"/><line class="cls-2" x1="25.95" y1="83.22" x2="19.05" y2="84.27"/></svg>