<svg width="12" height="14" viewBox="0 0 12 14" fill="none" xmlns="http://www.w3.org/2000/svg">
<path d="M3.49531 6.5H8.50469V6.50939H3.49531V6.5ZM3.49531 4.99765H8.50469V5.00704H3.49531V4.99765ZM10.6464 11.3536L11.5 12.2071V11V1.98592C11.5 1.58075 11.3406 1.22754 11.0486 0.951418C10.7725 0.659435 10.4193 0.5 10.0141 0.5H1.98592C1.5758 0.5 1.21692 0.662832 0.928137 0.951611C0.646392 1.23336 0.5 1.58753 0.5 1.98592V7.99531C0.5 8.39257 0.645062 8.74701 0.914288 9.03867L0.921069 9.04602L0.928137 9.05308C1.21692 9.34186 1.5758 9.50469 1.98592 9.50469H8.79759L10.6464 11.3536ZM3.49531 3.49531H8.50469V3.50469H3.49531V3.49531Z" fill="white" stroke="#666666"/>
</svg>
