<svg id="레이어_1" data-name="레이어 1" xmlns="http://www.w3.org/2000/svg" viewBox="0 0 490 490"><defs><style>.cls-1{fill:none;stroke:#999;stroke-miterlimit:10;stroke-width:12px;}.cls-2{fill:#999;}</style></defs><path class="cls-1" d="M455.56,351.33C396,368,323.36,377.7,245,377.7c-77.95,0-150.22-9.64-209.59-26.09"/><path class="cls-1" d="M33.65,146.67c58.94-17.58,131.67-28,210.35-28s151.45,10.39,210.4,28"/><path class="cls-2" d="M245,17a228.06,228.06,0,0,1,88.74,438.09A228.06,228.06,0,0,1,156.26,34.91,226.62,226.62,0,0,1,245,17m0-12C112.45,5,5,112.45,5,245S112.45,485,245,485,485,377.55,485,245,377.55,5,245,5Z"/><line class="cls-1" x1="245" y1="10" x2="245" y2="480"/><line class="cls-1" x1="480" y1="245" x2="10" y2="245"/><path class="cls-2" d="M245,17c17.06,0,33.74,5.62,49.56,16.69s30.25,27.21,42.7,47.81C350,102.53,360,127.11,367,154.55A365.85,365.85,0,0,1,378,245a365.85,365.85,0,0,1-11,90.45c-7,27.44-17,52-29.72,73.05-12.45,20.6-26.81,36.69-42.7,47.81S262.06,473,245,473s-33.74-5.62-49.56-16.69-30.25-27.21-42.7-47.81C140,387.47,130,362.89,123,335.45A365.85,365.85,0,0,1,112,245a365.85,365.85,0,0,1,11-90.45c7-27.44,17-52,29.72-73.05,12.45-20.6,26.81-36.69,42.7-47.81S227.94,17,245,17m0-12C164.92,5,100,112.45,100,245s64.92,240,145,240S390,377.55,390,245,325.08,5,245,5Z"/></svg>