<svg id="레이어_1" data-name="레이어 1" xmlns="http://www.w3.org/2000/svg" viewBox="0 0 35.74 34"><defs><style>.cls-1,.cls-3{fill:none;stroke:#333;stroke-miterlimit:10;}.cls-1{stroke-linecap:round;}.cls-2{fill:#333;}</style></defs><polyline class="cls-1" points="27.24 21.39 27.24 30.54 4.76 30.54 4.76 3.46 27.24 3.46 27.24 8.5"/><path class="cls-2" d="M15.13,19.45v-.34c0-1.21.31-2.45,2.32-4.25a4.29,4.29,0,0,0,1.8-3.55,2.82,2.82,0,0,0-3-2.91c-2,0-3,1.22-3.33,3.12H11.26a4.76,4.76,0,0,1,5-4.58A4.32,4.32,0,0,1,21,11.31c0,1.82-.58,3-2.42,4.63a4.09,4.09,0,0,0-1.74,3.32v.19Zm0,5.18V21.45h1.7v3.18Z"/><path class="cls-3" d="M20.51,25.56l2.38-1.32a.12.12,0,0,0,0-.2l-2.09-1.31a.1.1,0,0,0-.15.08Z"/><polyline class="cls-3" points="20.64 22.76 30.46 7.09 32.78 8.55 22.96 24.22"/><path class="cls-2" d="M31.63,4.51H33a.46.46,0,0,1,.46.46V7.73a.46.46,0,0,1-.46.46H31.63a0,0,0,0,1,0,0V4.51a0,0,0,0,1,0,0Z" transform="translate(9.88 30.55) rotate(-57.92)"/></svg>