<svg width="30" height="26" viewBox="0 0 30 26" fill="none" xmlns="http://www.w3.org/2000/svg">
<path d="M21.5 17V24.5C21.5 25.0523 21.0523 25.5 20.5 25.5H2C1.44772 25.5 1 25.0523 1 24.5V2C1 1.44772 1.44772 1 2 1H20.5C21.0523 1 21.5 1.44772 21.5 2V7.5M14.5 16.5L13.7725 18.4401C13.471 19.244 14.256 20.029 15.0599 19.7275L17 19M14.5 16.5L17 19M14.5 16.5L26.2929 4.70711C26.6834 4.31658 27.3166 4.31658 27.7071 4.70711L28.7929 5.79289C29.1834 6.18342 29.1834 6.81658 28.7929 7.20711L17 19M8 9C8 8 8.7 6 11.5 6C14.2258 6 14.6455 7.89541 14.5121 8.91845C14.505 8.97307 14.5007 9.02727 14.4976 9.08227C14.4585 9.78571 13.9216 11.2313 12 12C11.5 12.1667 10.6 13.2 11 16M11 18V18.5" stroke="#333333" stroke-linecap="round" stroke-linejoin="round"/>
</svg>
