<?xml version="1.0" encoding="utf-8"?>
<!-- Generator: Adobe Illustrator 24.2.1, SVG Export Plug-In . SVG Version: 6.00 Build 0)  -->
<svg version="1.1" id="Capa_1" xmlns="http://www.w3.org/2000/svg" xmlns:xlink="http://www.w3.org/1999/xlink" x="0px" y="0px"
	 viewBox="0 0 106.1 106.1" style="enable-background:new 0 0 106.1 106.1;" xml:space="preserve">
<style type="text/css">
	.st0{fill:#FF3300;}
</style>
<path class="st0" d="M90.5,15.5c-20.7-20.7-54.3-20.7-75,0s-20.7,54.3,0,75c20.7,20.7,54.2,20.7,74.9,0
	C111.2,69.8,111.2,36.3,90.5,15.5C90.5,15.5,90.5,15.5,90.5,15.5z M87.2,87.2c-18.8,18.8-49.4,18.8-68.2,0s-18.8-49.4,0-68.2
	s49.4-18.8,68.2,0c0,0,0,0,0,0l0,0C106,37.8,106,68.3,87.2,87.2z M-80.5,35.5c0-4.1,3.3-7.3,7.4-7.4c4.1,0,7.3,3.3,7.4,7.4
	c0,4.1-3.3,7.3-7.4,7.4C-77.2,42.9-80.5,39.6-80.5,35.5z M-47,35.5c0-4.1,3.3-7.3,7.4-7.4c4.1,0,7.3,3.3,7.4,7.4
	c0,4.1-3.3,7.3-7.4,7.4C-43.7,42.9-47,39.6-47,35.5L-47,35.5z M-29.7,65.7c-8.8,22.9-46.1,22.6-54.6-0.1c-1.7-4.3,4.7-6.9,6.5-2.7
	c6.5,17.1,34.8,17.2,41.4,0C-34.5,58.6-27.9,61.4-29.7,65.7z M81.6,77.4c0.8,1.8,0.1,3.9-1.7,4.7c-1.8,0.8-3.9,0.1-4.7-1.7l-0.1-0.2
	C71.4,72,63.3,66.8,54.3,67c-9.4,0-17.5,5.1-20.8,13.1c-0.5,1.4-1.9,2.3-3.3,2.3c-0.5,0-1-0.1-1.4-0.2c-1.8-0.7-2.7-2.8-1.9-4.6
	c0,0,0,0,0,0v-0.1C31.2,66.9,42.1,60,54.3,60C66.4,60,77.1,66.8,81.6,77.4z M29.4,35.4c0-4.1,3.3-7.4,7.4-7.4c4.1,0,7.4,3.3,7.4,7.4
	c0,4.1-3.3,7.4-7.4,7.4l0,0C32.8,42.7,29.5,39.4,29.4,35.4L29.4,35.4z M63,35.4c0-4.1,3.3-7.4,7.4-7.4c4.1,0,7.4,3.3,7.4,7.4
	s-3.3,7.4-7.4,7.4l0,0l0,0C66.3,42.7,63,39.4,63,35.4L63,35.4z"/>
</svg>
