<svg id="Capa_1" data-name="Capa 1" xmlns="http://www.w3.org/2000/svg" viewBox="0 0 106.1 106.1"><defs><style>.cls-1{fill:#999;}</style></defs><path class="cls-1" d="M90.5,15.5a53,53,0,1,0,0,75A53.05,53.05,0,0,0,90.5,15.5ZM87.16,87.16a48.24,48.24,0,1,1,0-68.22A48.31,48.31,0,0,1,87.16,87.16ZM29.49,35.54a7.36,7.36,0,1,1,7.36,7.36A7.4,7.4,0,0,1,29.49,35.54Zm33.48,0a7.36,7.36,0,1,1,7.36,7.36A7.39,7.39,0,0,1,63,35.54ZM80.3,65.69C75.79,76.25,65.1,83,53.12,83c-12.23,0-23-6.88-27.42-17.45a3.58,3.58,0,0,1,1.9-4.63,2.74,2.74,0,0,1,1.3-.24,3.65,3.65,0,0,1,3.32,2.14C35.55,70.79,43.74,75.9,53,75.9A22.2,22.2,0,0,0,73.65,62.84a3.62,3.62,0,0,1,6.65,2.85ZM221.6,77.38a3.55,3.55,0,1,1-6.55,2.73A22.27,22.27,0,0,0,194.34,67c-9.41,0-17.51,5.12-20.84,13.09a3.58,3.58,0,0,1-3.33,2.27,5.86,5.86,0,0,1-1.43-.24,3.51,3.51,0,0,1-1.91-4.65C171.24,66.9,182.07,60,194.34,60,206.36,60,217.08,66.78,221.6,77.38Zm-52.15-42a7.39,7.39,0,1,1,7.38,7.38A7.43,7.43,0,0,1,169.45,35.35Zm33.58,0a7.38,7.38,0,1,1,7.38,7.38A7.42,7.42,0,0,1,203,35.35Z"/></svg>