<svg id="레이어_1" data-name="레이어 1" xmlns="http://www.w3.org/2000/svg" viewBox="0 0 100 100"><defs><style>.cls-1{fill:none;stroke:#323333;stroke-linecap:round;stroke-miterlimit:10;stroke-width:3px;}.cls-2{fill:#323333;}</style></defs><path class="cls-1" d="M76.06,18.51H80a7.19,7.19,0,0,1,7.18,7.18V50.43"/><path class="cls-1" d="M87.16,63.08V86.33A7.19,7.19,0,0,1,80,93.51H19.34a7.18,7.18,0,0,1-7.18-7.18V25.69a7.18,7.18,0,0,1,7.18-7.18H40.8"/><path class="cls-1" d="M24.36,25.25l41-16.36a5.47,5.47,0,0,1,7.12,3L77.75,25"/><line class="cls-1" x1="86.75" y1="25.25" x2="19.46" y2="25.25"/><rect class="cls-1" x="61.94" y="50" width="29.14" height="13.79" rx="6.9"/><circle class="cls-2" cx="68.25" cy="56.9" r="3.18"/></svg>