<svg width="48" height="50" viewBox="0 0 48 50" fill="none" xmlns="http://www.w3.org/2000/svg">
<path d="M23.8764 0V3.58225M23.8764 3.58225C20.1667 3.58225 12.2033 6.08982 10.0269 16.1201C9.65798 18.2831 9.06891 23.7106 9.64625 28.1998C9.65265 28.2495 9.65565 28.2961 9.65416 28.3462C9.58923 30.5278 8.42415 37.2854 5.70183 38.2146C5.61855 38.243 5.53069 38.2533 5.44269 38.2533H2.97849C2.319 38.2959 1 38.8674 1 40.812C1 42.7567 2.319 43.1575 2.97849 43.1149H45.1953C45.2443 43.1149 45.2929 43.1119 45.3409 43.1022C45.9365 42.9814 47 42.384 47 40.812C47 39.2951 46.0097 38.5393 45.4051 38.3005C45.3158 38.2653 45.2201 38.2533 45.1241 38.2533H42.0538C40.3226 38.2533 37.8989 31.6517 38.0968 28.2742C38.2616 26.0992 38.3935 20.6235 37.6022 16.1201C36.819 11.9408 32.9775 3.58225 23.8764 3.58225ZM23.8764 49C27.3549 49 29.3803 46.7666 30.3059 44.9771C30.6107 44.388 30.1422 43.7546 29.479 43.7546H18.4621C17.8171 43.7546 17.3488 44.3573 17.6202 44.9424C18.453 46.7376 20.3753 49 23.8764 49Z" stroke="#333333" stroke-width="2"/>
</svg>
