<svg id="Capa_1" data-name="Capa 1" xmlns="http://www.w3.org/2000/svg" viewBox="0 0 421 421"><defs><style>.cls-1{fill:#333;}</style></defs><path class="cls-1" d="M354.5,144a144,144,0,0,0-288,0c-20.6,2.6-40,16-40,47.2v75.2c0,35.2,24.6,48,48,48H97.7a8,8,0,0,0,8-8V151.5a8,8,0,0,0-8-8H82.5a128,128,0,0,1,256,0H323.3a8,8,0,0,0-8,8V306.1a8,8,0,0,0,8,8h15.2c-2.2,55-28.6,67.8-81.4,70.2V379a16,16,0,0,0-16-16H190.8a16,16,0,0,0-16,16v26a16,16,0,0,0,16,16h50.5a16,16,0,0,0,16-16v-4.6c50.7-2.3,94.6-12.8,97.2-86.6,20.6-2.6,40-16,40-47.2V191.4C394.5,159.9,375.1,146.6,354.5,144ZM89.7,159V298.2H74.1c-11.8,0-32-4.2-32-32V191c0-27.6,19.9-32,32-32ZM241.3,392.9V405H190.8V379h50.5ZM378.5,266.4c0,27.6-19.9,32-32,32H331.3V159.5h15.6c11.8,0,32,4.2,32,32Z"/></svg>