<svg width="46" height="70" viewBox="0 0 46 70" fill="none" xmlns="http://www.w3.org/2000/svg">
<mask id="path-1-inside-1" fill="white">
<path d="M45.9537 47.4433C45.9537 41.6582 43.5346 36.11 39.2286 32.0192C34.9226 27.9285 29.0824 25.6304 22.9927 25.6304C16.9031 25.6304 11.0629 27.9285 6.75686 32.0192C2.45084 36.11 0.0317392 41.6582 0.0317383 47.4433L22.9927 47.4433H45.9537Z"/>
</mask>
<path d="M45.9537 47.4433C45.9537 41.6582 43.5346 36.11 39.2286 32.0192C34.9226 27.9285 29.0824 25.6304 22.9927 25.6304C16.9031 25.6304 11.0629 27.9285 6.75686 32.0192C2.45084 36.11 0.0317392 41.6582 0.0317383 47.4433L22.9927 47.4433H45.9537Z" stroke="#333333" stroke-width="4" stroke-linecap="round" stroke-linejoin="round" mask="url(#path-1-inside-1)"/>
<circle cx="22.9927" cy="11.4805" r="10.4805" stroke="#333333" stroke-width="2"/>
</svg>
