<svg width="47" height="60" viewBox="0 0 47 60" fill="none" xmlns="http://www.w3.org/2000/svg">
<mask id="path-1-inside-1" fill="white">
<path d="M46.4819 38.0403C46.4819 33.5855 44.6512 29.3132 41.3926 26.1633C38.134 23.0133 33.7144 21.2437 29.106 21.2437C24.4977 21.2437 20.0781 23.0133 16.8195 26.1633C13.5609 29.3132 11.7302 33.5855 11.7302 38.0403L29.106 38.0403H46.4819Z"/>
</mask>
<path d="M46.4819 38.0403C46.4819 33.5855 44.6512 29.3132 41.3926 26.1633C38.134 23.0133 33.7144 21.2437 29.106 21.2437C24.4977 21.2437 20.0781 23.0133 16.8195 26.1633C13.5609 29.3132 11.7302 33.5855 11.7302 38.0403L29.106 38.0403H46.4819Z" stroke="#333333" stroke-width="4" stroke-linecap="round" stroke-linejoin="round" mask="url(#path-1-inside-1)"/>
<path d="M37.3728 9.07951C37.3728 13.2656 33.7333 16.7674 29.1057 16.7674C24.4782 16.7674 20.8386 13.2656 20.8386 9.07951C20.8386 4.89341 24.4782 1.3916 29.1057 1.3916C33.7333 1.3916 37.3728 4.89341 37.3728 9.07951Z" stroke="#333333" stroke-width="2"/>
<mask id="path-3-inside-2" fill="white">
<path d="M37.794 41.2644C37.794 36.4915 35.8325 31.9141 32.3412 28.5391C28.8498 25.1641 24.1145 23.2681 19.177 23.2681C14.2395 23.2681 9.50419 25.1641 6.01284 28.5391C2.52148 31.9141 0.560059 36.4915 0.560059 41.2644L19.177 41.2644H37.794Z"/>
</mask>
<path d="M37.794 41.2644C37.794 36.4915 35.8325 31.9141 32.3412 28.5391C28.8498 25.1641 24.1145 23.2681 19.177 23.2681C14.2395 23.2681 9.50419 25.1641 6.01284 28.5391C2.52148 31.9141 0.560059 36.4915 0.560059 41.2644L19.177 41.2644H37.794Z" fill="white" stroke="#333333" stroke-width="4" stroke-linecap="round" stroke-linejoin="round" mask="url(#path-3-inside-2)"/>
<path d="M28.1064 10.2362C28.1064 14.765 24.1705 18.5447 19.1773 18.5447C14.1842 18.5447 10.2483 14.765 10.2483 10.2362C10.2483 5.70738 14.1842 1.92773 19.1773 1.92773C24.1705 1.92773 28.1064 5.70738 28.1064 10.2362Z" fill="white" stroke="#333333" stroke-width="2"/>
</svg>
