<svg width="48" height="54" viewBox="0 0 48 54" fill="none" xmlns="http://www.w3.org/2000/svg">
<path d="M23.8392 30.1561C18.6001 30.1561 15.2322 26.5855 12.9758 21.7399M23.8392 30.1561C29.0782 30.1561 32.5643 26.5855 34.9051 21.7399M23.8392 30.1561V34.9653M8.7554 5.50867C8.57198 4.32348 8.40727 3.19523 8.2516 2.1531C8.16103 1.5467 8.63012 1 9.24324 1H38.5092C39.0962 1 39.5574 1.50314 39.5012 2.08743C39.3991 3.14777 39.2751 4.29854 39.121 5.50867M8.7554 5.50867H2C1.44772 5.50867 1 5.95639 1 6.50867V16.5392C1 16.9555 1.25799 17.3283 1.64766 17.475L12.9758 21.7399M8.7554 5.50867C9.54976 10.6414 10.695 16.842 12.9758 21.7399M39.121 5.50867H46C46.5523 5.50867 47 5.95639 47 6.50867V16.5368C47 16.9543 46.7406 17.3279 46.3493 17.4738L34.9051 21.7399M39.121 5.50867C38.4673 10.6414 37.2712 16.842 34.9051 21.7399M23.8392 34.9653H18.4056C17.8533 34.9653 17.4056 35.413 17.4056 35.9653V40.9769M23.8392 34.9653H28.951C29.5033 34.9653 29.951 35.413 29.951 35.9653V40.9769M17.4056 40.9769H29.951M17.4056 40.9769H12.9371C12.3848 40.9769 11.9371 41.4246 11.9371 41.9769V49.6936M29.951 40.9769H34.7413C35.2935 40.9769 35.7413 41.4246 35.7413 41.9769V49.6936M11.9371 49.6936H35.7413M11.9371 49.6936H9.75541C9.20312 49.6936 8.7554 50.1414 8.7554 50.6936V52C8.7554 52.5523 9.20312 53 9.7554 53H37.3147C37.867 53 38.3147 52.5523 38.3147 52V50.6936C38.3147 50.1414 37.867 49.6936 37.3147 49.6936H35.7413" stroke="#333333" stroke-width="2"/>
</svg>
